<svg width="55" height="55" viewBox="0 0 55 55" fill="none" xmlns="http://www.w3.org/2000/svg">
<path d="M0 29.5V55L55 0H29L0 29.5Z" fill="#CB262C"/>
<path d="M10.5656 26.1427L15.4857 20.9454L16.1192 21.6384L14.8719 23.1629L20.079 29.5976L19.0891 30.7855L12.892 25.5784L11.6447 27.1029L10.5656 26.1427ZM25.508 19.991C25.9105 20.3936 26.2141 20.7632 26.4187 21.0998C26.6167 21.4298 26.7322 21.7829 26.7652 22.159C26.818 22.8718 26.3692 23.7034 25.4189 24.6537C24.4751 25.5975 23.5281 26.1155 22.5777 26.2079C21.9111 25.7658 21.3073 25.2741 20.7661 24.7329C19.6706 23.6374 18.8951 22.4527 18.4397 21.179C17.9909 19.8987 17.859 18.8031 18.0437 17.8924C19.1327 17.437 20.3668 17.3908 21.7462 17.7538C23.1189 18.1101 24.3728 18.8559 25.508 19.991ZM23.8647 20.7434C22.8483 19.7271 21.8089 19.0242 20.7463 18.6348C20.6935 19.8624 20.8717 21.0437 21.2809 22.1788C21.6967 23.3074 22.2774 24.2445 23.0232 24.9903C23.2938 24.8121 23.5842 24.5679 23.8943 24.2577C24.5015 23.6506 24.947 23.0533 25.2308 22.4659C24.8348 21.8324 24.3794 21.2582 23.8647 20.7434ZM22.7843 14.3398C23.4113 13.1188 24.1966 12.0365 25.1404 11.0927C26.0841 10.149 26.9685 9.58139 27.7934 9.39C28.2686 9.62759 28.6679 9.90808 28.9913 10.2315C29.7502 10.9904 30.0736 11.9408 29.9614 13.0825C29.8426 14.2177 29.4005 15.3924 28.6349 16.6067L30.6148 19.0618L29.7238 20.1508L22.7843 14.3398ZM27.3678 12.4291C26.8596 11.921 26.2722 11.7494 25.6056 11.9144C25.4869 12.0332 25.3648 12.2015 25.2394 12.4192L28.031 15.8643C28.2224 15.1977 28.2521 14.5542 28.1201 13.9339C27.9947 13.3069 27.7439 12.8053 27.3678 12.4291Z" fill="white"/>
</svg>
