<svg width="55" height="55" viewBox="0 0 55 55" fill="none" xmlns="http://www.w3.org/2000/svg">
<path d="M0 29.5V55L55 0H29L0 29.5Z" fill="#CB262C"/>
<path d="M13.9218 22.6085L20.0298 29.5678L19.2873 30.6073L10.7737 28.5086L10.6945 28.5878L15.8819 33.7157L14.9414 34.7552L8.72454 28.0037L10.9717 25.4595L17.644 28.667L17.7232 28.5878L12.9813 23.6479L13.9218 22.6085ZM26.2108 23.3868L22.4292 27.3466L15.4402 21.2881L19.6673 16.7838L20.3008 17.4768L18.4595 19.813L20.2513 22.1196L22.3401 19.9912L23.2806 20.8327L20.875 22.9017L22.8153 25.3766L25.2308 22.3275L26.2108 23.3868ZM22.9189 13.5123L28.5914 17.8186L28.6705 17.7394L25.473 11.5522L26.5026 10.9978L32.0265 14.4627L32.1057 14.3835L28.2152 8.21609L29.3437 7.56272L33.9371 15.6605L33.1946 16.7L28.3439 14.8784L30.403 19.1946L29.4625 20.4321L20.9192 16.0466L22.9189 13.5123Z" fill="white"/>
</svg>
