<svg width="55" height="55" viewBox="0 0 55 55" fill="none" xmlns="http://www.w3.org/2000/svg">
<path d="M0 29.5V55L55 0H29L0 29.5Z" fill="#CB262C"/>
<path d="M21.1598 28.7548L18.3384 26.3888L16.4179 28.6459L18.4869 31.1901L17.596 32.279L10.4584 26.27L12.567 23.8644L15.7448 27.7945L17.7148 25.8641L14.0223 22.7458L16.1309 20.3402L22.0508 27.6659L21.1598 28.7548ZM26.8179 18.6815C27.2205 19.0841 27.5241 19.4537 27.7287 19.7903C27.9266 20.1202 28.0421 20.4733 28.0751 20.8495C28.1279 21.5623 27.6792 22.3938 26.7288 23.3442C25.7851 24.2879 24.838 24.806 23.8877 24.8984C23.2211 24.4562 22.6172 23.9645 22.076 23.4234C20.9805 22.3278 20.205 21.1432 19.7497 19.8695C19.3009 18.5891 19.1689 17.4936 19.3537 16.5828C20.4426 16.1274 21.6768 16.0813 23.0561 16.4442C24.4288 16.8006 25.6828 17.5464 26.8179 18.6815ZM25.1746 19.4339C24.1582 18.4175 23.1188 17.7147 22.0562 17.3253C22.0035 18.5528 22.1816 19.7342 22.5908 20.8693C23.0066 21.9978 23.5874 22.935 24.3331 23.6808C24.6037 23.5026 24.8941 23.2584 25.2043 22.9482C25.8115 22.341 26.2569 21.7438 26.5407 21.1564C26.1447 20.5228 25.6894 19.9487 25.1746 19.4339ZM23.3122 13.3965L28.2322 8.19927L28.8658 8.89223L27.6184 10.4168L32.8256 16.8514L31.8356 18.0394L25.6385 12.8322L24.3912 14.3568L23.3122 13.3965Z" fill="white"/>
</svg>
