<svg width="55" height="55" viewBox="0 0 55 55" fill="none" xmlns="http://www.w3.org/2000/svg">
<path d="M0 29.5V55L55 0H29L0 29.5Z" fill="#CB262C"/>
<path d="M8.65415 32.2317C7.7236 31.3012 7.36061 29.9482 7.5652 28.1729L10.5846 27.5691C10.281 28.9022 10.4163 29.8559 10.9904 30.43C11.2346 30.6742 11.5745 30.8491 12.0101 30.9547C12.4457 31.0603 12.8779 31.1626 13.3069 31.2616C13.7425 31.354 14.0758 31.5157 14.3068 31.7467C15.2637 32.7036 15.3429 34.1027 14.5443 35.944L13.4257 35.7758C13.5709 35.2742 13.6237 34.8782 13.5841 34.5878C13.5445 34.2974 13.4257 34.0532 13.2277 33.8552C13.0297 33.6573 12.7294 33.5154 12.3269 33.4296C11.9243 33.3306 11.5283 33.2712 11.1389 33.2514C10.7561 33.225 10.3272 33.1326 9.85199 32.9742C9.38341 32.8092 8.98413 32.5617 8.65415 32.2317ZM17.0852 32.5122L12.3532 24.0779L14.8974 21.8307L22.619 26.9784L21.8765 28.0179L19.5502 27.0576L17.1347 29.9087L18.2236 31.6708L17.0852 32.5122ZM14.0361 24.8896L16.5506 28.9682L18.8077 26.7507L14.1153 24.8104L14.0361 24.8896ZM28.1694 21.4281L24.5858 25.1899L17.5967 19.1314L19.8043 16.6268L24.9619 23.21L27.1893 20.3688L28.1694 21.4281ZM33.3655 16.232L29.5838 20.1918L22.5948 14.1333L26.8219 9.62902L27.4555 10.322L25.6141 12.6583L27.406 14.9648L29.4948 12.8365L30.4352 13.6779L28.0296 15.7469L29.9699 18.2218L32.3854 15.1727L33.3655 16.232ZM30.232 10.6539C29.3014 9.72337 28.9384 8.37044 29.143 6.59513L32.1624 5.99126C31.8588 7.3244 31.9941 8.27805 32.5682 8.85222C32.8124 9.09641 33.1523 9.2713 33.5879 9.37689C34.0235 9.48249 34.4557 9.58478 34.8847 9.68378C35.3203 9.77617 35.6536 9.93786 35.8846 10.1689C36.8415 11.1258 36.9207 12.5249 36.1222 14.3662L35.0035 14.1979C35.1487 13.6964 35.2015 13.3004 35.1619 13.01C35.1223 12.7196 35.0035 12.4754 34.8055 12.2774C34.6075 12.0795 34.3072 11.9376 33.9047 11.8518C33.5021 11.7528 33.1061 11.6934 32.7167 11.6736C32.3339 11.6472 31.905 11.5548 31.4298 11.3964C30.9612 11.2314 30.5619 10.9839 30.232 10.6539Z" fill="white"/>
</svg>
