<svg xmlns="http://www.w3.org/2000/svg" xmlns:xlink="http://www.w3.org/1999/xlink" width="602.113" height="536.365" viewBox="0 0 602.113 536.365">
  <defs>
    <clipPath id="clip-path">
      <rect id="Rectangle_279" data-name="Rectangle 279" width="129.296" height="126.603" transform="translate(129.296 126.603) rotate(180)" fill="#3c4653"/>
    </clipPath>
  </defs>
  <g id="about-food-delivery-img" transform="translate(-68.887 -6766)">
    <g id="Group_163322" data-name="Group 163322" transform="translate(-220 -715)">
      <g id="Group_163320" data-name="Group 163320" transform="translate(288.887 7481)">
        <path id="path88" d="M748.947-426.757a6.556,6.556,0,0,1-.273-2.646,6.559,6.559,0,0,1,.273-2.646,6.621,6.621,0,0,1,.273,2.646,6.619,6.619,0,0,1-.273,2.646" transform="translate(-748.64 532.349)" fill="#eee"/>
        <g id="Group_160240" data-name="Group 160240" transform="translate(34.834 0)">
          <g id="Group_160239" data-name="Group 160239" transform="translate(16.389 28.199)">
            <path id="path146" d="M853.813-233.988a16.368,16.368,0,0,1-16.368-16.368,16.368,16.368,0,0,1,16.368-16.368,16.368,16.368,0,0,1,16.368,16.368A16.368,16.368,0,0,1,853.813-233.988Zm37.2-16.2a37.236,37.236,0,0,0-13.584-28.742A37.237,37.237,0,0,0,846.6-286.7a37.187,37.187,0,0,0-29.411,29.927,37.068,37.068,0,0,0,4.557,25.386h-.021l.106.136c1.427,2.4,3.215,4.122,5.019,6.649l21.6,28.609a6.716,6.716,0,0,0,5.362,2.671,6.717,6.717,0,0,0,5.362-2.671l21.239-28.138a80.24,80.24,0,0,0,5.4-7.158l.078-.1h-.007a36.973,36.973,0,0,0,5.135-18.793" transform="translate(-794.607 438.576)" fill="#3c4653"/>
            <g id="Group_776" data-name="Group 776" transform="translate(113.697)" clip-path="url(#clip-path)">
              <path id="Path_2067" data-name="Path 2067" d="M339.184,253.63l-7.6-.475h-.041a17.955,17.955,0,0,1-13.334-7.638l-6-8.643a34.372,34.372,0,0,1-5.7-25.595,7.866,7.866,0,0,1,2.592-4.573,8.139,8.139,0,0,1,4.938-1.972,35.97,35.97,0,0,1,25.216,8.623l8.027,6.885a17.4,17.4,0,0,1,6.131,13.9.208.208,0,0,0,0,.041l-.434,7.454a10.381,10.381,0,0,0,2.973,7.863l62.709,63.209a8.851,8.851,0,0,1,2.44,6.637,10.554,10.554,0,0,1-3.529,7.41,10.955,10.955,0,0,1-7.093,2.581q-.419,0-.835-.033a9.181,9.181,0,0,1-6.433-3.184l-56.433-68.649a10.762,10.762,0,0,0-7.6-3.844Z" transform="translate(-305.999 -202.83)" fill="#3c4653"/>
              <path id="Path_2068" data-name="Path 2068" d="M309.123,268.552l42.054-37.577a1.963,1.963,0,0,1,2.736.127,1.877,1.877,0,0,1-.127,2.686l-42.043,37.569a5.13,5.13,0,0,0-1.6,3.76,6.7,6.7,0,0,0,1.934,4.844,6.956,6.956,0,0,0,4.935,1.9,5.32,5.32,0,0,0,3.819-1.556l37.472-40.36a1.965,1.965,0,0,1,2.74-.127,1.874,1.874,0,0,1,.127,2.686l-37.479,40.374a9.205,9.205,0,0,1-6.607,2.791h-.2a10.942,10.942,0,0,1-7.548-3.014,10.525,10.525,0,0,1-3.068-7.6,8.866,8.866,0,0,1,2.854-6.492Z" transform="translate(-305.542 -159.151)" fill="#3c4653"/>
              <path id="Path_2069" data-name="Path 2069" d="M370.526,254.2a18.123,18.123,0,0,1-11.73,4.655.2.2,0,0,1-.041,0l-7.612.022a10.775,10.775,0,0,0-7.82,3.385l-3.354,3.609a1.961,1.961,0,0,1-2.737.127,1.879,1.879,0,0,1-.136-2.688l3.359-3.615a14.712,14.712,0,0,1,10.67-4.622l7.591-.022a14.231,14.231,0,0,0,9.094-3.572l22.058-25.725a.645.645,0,0,0-.038-.889.671.671,0,0,0-.475-.191.682.682,0,0,0-.475.191l-20.069,19.7a5.169,5.169,0,0,1-7.2,0l-2.36-2.319-4.189-4.111h0l-2.36-2.319a4.938,4.938,0,0,1,0-7.063l20.079-19.7a.645.645,0,0,0,0-.926.682.682,0,0,0-.906-.041L345.65,229.746a13.667,13.667,0,0,0-3.642,8.922l-.022,7.449a14.2,14.2,0,0,1-4.717,10.473l-3.593,3.208a1.963,1.963,0,0,1-2.736-.124,1.877,1.877,0,0,1,.127-2.686l3.589-3.205a10.411,10.411,0,0,0,3.456-7.676l.025-7.469V238.6a17.431,17.431,0,0,1,4.744-11.513,2.071,2.071,0,0,1,.177-.166l26.325-21.721a4.584,4.584,0,0,1,6.138.259,4.4,4.4,0,0,1,0,6.306l-20.079,19.7a1.174,1.174,0,0,0,0,1.683l.989.97,22.379-21.96a1.961,1.961,0,0,1,2.74,0,1.875,1.875,0,0,1,0,2.688L359.171,236.8l1.451,1.423,22.369-21.96a1.97,1.97,0,0,1,2.742,0,1.875,1.875,0,0,1,0,2.688l-22.379,21.96.989.97a1.228,1.228,0,0,0,1.719,0l20.079-19.7a4.606,4.606,0,0,1,6.427,0,4.376,4.376,0,0,1,.273,6.026l-22.135,25.819a2.1,2.1,0,0,1-.18.176Z" transform="translate(-264.616 -203.766)" fill="#3c4653"/>
            </g>
          </g>
          <g id="Group_160234" data-name="Group 160234" transform="translate(227.606 0)">
            <g id="Group_160233" data-name="Group 160233" transform="translate(0)">
              <g id="Group_160231" data-name="Group 160231">
                <path id="path138" d="M466.785-332.186a4.287,4.287,0,0,1,1.024-.136l2.8-.217c2.361-.185,5.62-.451,9.2-.873s6.82-.9,9.16-1.267l2.772-.432a4.306,4.306,0,0,1,1.028-.1,4.3,4.3,0,0,1-.993.286c-.645.154-1.582.357-2.748.581-2.328.456-5.564,1-9.163,1.412s-6.869.636-9.24.735c-1.185.045-2.146.068-2.808.065a4.333,4.333,0,0,1-1.033-.049" transform="translate(-170.095 505.588)" fill="#e3e3e2"/>
                <path id="path140" d="M449.825-356.857a3.737,3.737,0,0,1,.615.732c.368.49.891,1.2,1.526,2.1,1.273,1.781,3,4.262,4.891,7.019s3.574,5.268,4.774,7.093c.6.915,1.08,1.661,1.4,2.182a3.641,3.641,0,0,1,.46.838,3.723,3.723,0,0,1-.614-.731c-.37-.49-.892-1.206-1.528-2.1-1.271-1.781-3-4.262-4.89-7.019s-3.574-5.268-4.774-7.093c-.6-.915-1.08-1.66-1.4-2.182a3.73,3.73,0,0,1-.461-.838" transform="translate(-166.6 510.042)" fill="#e3e3e2"/>
                <path id="path142" d="M428.192-322.481a5.9,5.9,0,0,1,.773.945l1.965,2.68c1.637,2.275,3.886,5.438,6.338,8.948s4.651,6.7,6.222,9.028l1.841,2.767a5.97,5.97,0,0,1,.622,1.053,5.993,5.993,0,0,1-.773-.945l-1.966-2.68c-1.637-2.275-3.886-5.438-6.338-8.948s-4.651-6.7-6.222-9.028l-1.841-2.768a6.069,6.069,0,0,1-.622-1.053" transform="translate(-162.145 502.961)" fill="#e3e3e2"/>
                <path id="path144" d="M450.246-292.614a6.935,6.935,0,0,1,1.293-.2l3.535-.4c2.986-.34,7.108-.818,11.641-1.48s8.628-1.348,11.587-1.87l3.507-.614a6.869,6.869,0,0,1,1.3-.171,6.969,6.969,0,0,1-1.26.353c-.818.2-2.006.461-3.48.764-2.945.607-7.037,1.364-11.581,2.01s-8.679,1.091-11.677,1.343c-1.5.124-2.713.21-3.546.251a6.927,6.927,0,0,1-1.309.018" transform="translate(-166.688 497.79)" fill="#e3e3e2"/>
                <path id="path272" d="M414.543-256.246c1.979.3,5.729,1.091,13.026,3.014l.228-53.957-18.019,1.734,4.766,49.209" transform="translate(-158.353 499.811)" fill="#f8f8f9"/>
                <path id="path274" d="M408.769-315.383,427-317.135l.112-26.546-21.228-1.469,2.883,29.767" transform="translate(-157.554 507.629)" fill="#f8f8f9"/>
                <g id="Group_160230" data-name="Group 160230">
                  <path id="path132" d="M443.864-309c5.707-14.357,13.764-34.124,22.733-55.931s17.07-41.541,22.859-55.864c2.881-7.15,5.216-12.941,6.839-16.969l1.865-4.612c.211-.511.377-.907.5-1.195a4.254,4.254,0,0,1,.184-.4s-.04.145-.136.419l-.453,1.213c-.409,1.082-1.013,2.645-1.781,4.637-1.552,4.033-3.841,9.851-6.7,17.028-5.708,14.357-13.762,34.123-22.729,55.923s-17.074,41.557-22.858,55.881" transform="translate(-165.374 527.985)" fill="#e3e3e2"/>
                  <path id="path134" d="M474.058-403.563a4.092,4.092,0,0,1,.434.914c.252.6.592,1.477,1,2.564.818,2.182,1.85,5.214,2.934,8.593,1.052,3.319,2,6.322,2.736,8.643.329,1.024.608,1.9.84,2.613a4.157,4.157,0,0,1,.273.977,4.073,4.073,0,0,1-.441-.911c-.252-.6-.591-1.479-.986-2.57-.788-2.182-1.787-5.235-2.871-8.607-1.073-3.31-2.046-6.3-2.8-8.62l-.854-2.612a4.011,4.011,0,0,1-.258-.978" transform="translate(-171.59 519.662)" fill="#e3e3e2"/>
                  <path id="path136" d="M486.033-375.47c-.046-.124,6.119-2.547,13.765-5.411s13.887-5.086,13.934-4.962-6.115,2.546-13.767,5.411-13.887,5.086-13.933,4.962" transform="translate(-174.06 516.012)" fill="#e3e3e2"/>
                  <path id="path244" d="M408.344-423.387l1.972-11.7c-17.3-6.171-18.49-24.206-18.441-29.665l-11.29,4.467,17,34.121,10.759,2.781" transform="translate(-152.342 532.265)" fill="#f8f8f9"/>
                  <path id="path250" d="M368.871-453.439l15.814,30.093L382.4-413.97l-27.064-1.019-6.765-28.461Zm17.752,44.16.546-13.726-17.26-34.645-26.762,10.591,9.2,37.782H386.62" transform="translate(-144.631 530.803)" fill="#f8f8f9"/>
                  <path id="path264" d="M413.7-439.282l2.214-13.132,9.536.742.12-28.281-29.417,11.642c-.6,19.9,11.9,26.9,17.547,29.028" transform="translate(-155.541 535.395)" fill="#f8f8f9"/>
                  <path id="path266" d="M403.988-369.311l1.2,12.412,21.551,1.491.108-25.542-18.043-5.7L403.987-369.3" transform="translate(-157.161 516.181)" fill="#f8f8f9"/>
                  <path id="path270" d="M401.884-399.453l24.551,7.754.059-13.963-24.116-6.232-.5,12.441" transform="translate(-156.728 521.378)" fill="#f8f8f9"/>
                  <path id="path276" d="M420.816-430.881a99.016,99.016,0,0,0,9.649,2.455l.057-13.4-7.761-.6-1.945,11.541" transform="translate(-160.626 527.663)" fill="#f8f8f9"/>
                  <path id="path278" d="M418.136-414.99l11.722,3.029.05-12.107c-3.032-.608-6.3-1.432-9.821-2.5l-1.95,11.576" transform="translate(-160.075 524.399)" fill="#f8f8f9"/>
                  <path id="path290" d="M383.81-412.879l2.285-9.376-15.822-30.091-20.3,9.988L356.74-413.9l27.064,1.019" transform="translate(-146.038 529.709)" fill="#eee"/>
                </g>
                <g id="Group_160229" data-name="Group 160229">
                  <path id="path26" d="M215.621-37.855c-.2,0-.361-31.295-.361-69.89s.161-69.9.361-69.9.36,31.288.36,69.9-.161,69.89-.36,69.89" transform="translate(-118.288 473.129)" fill="#e3e3e2"/>
                  <path id="path28" d="M250.094-24.819H236.138V-40.593h13.956v15.774" transform="translate(-122.589 444.901)" fill="#fcfdfd"/>
                  <path id="path176" d="M180.5-31.87a1.721,1.721,0,0,0,.244-.432c.165-.345.367-.767.61-1.279.525-1.112,1.243-2.742,2.1-4.767,1.723-4.051,3.926-9.72,6.274-16.01s4.5-11.974,6.131-16.054l1.952-4.828.524-1.318a1.822,1.822,0,0,0,.151-.475,1.828,1.828,0,0,0-.244.434l-.611,1.278c-.524,1.112-1.241,2.743-2.1,4.774-1.723,4.051-3.926,9.72-6.274,16.012s-4.5,11.972-6.13,16.053l-1.946,4.826-.524,1.318a1.89,1.89,0,0,0-.151.473" transform="translate(-111.131 452.406)" fill="#1d2a30"/>
                  <path id="path184" d="M325.911-104.61c-.169,4.373-.329,8.476-.462,11.886h21.219l-2.592-13.034-18.16,1.147" transform="translate(-140.984 458.322)" fill="#f8f8f9"/>
                  <path id="path186" d="M217.419-98.821l.186,6.431H301.08c.136-3.612.3-7.619.457-11.752L217.42-98.823" transform="translate(-118.733 457.991)" fill="#f8f8f9"/>
                  <path id="path190" d="M325.6-348l7.4-42.889-19.377-1.436v44.329H325.6" transform="translate(-138.545 517.346)" fill="#f8f8f9"/>
                  <path id="path208" d="M326.359-114.19c-.074,1.923-.147,3.838-.22,5.718l17.661-1.117-.907-4.556-16.534-.045" transform="translate(-141.123 460.06)" fill="#f8f8f9"/>
                  <path id="path212" d="M334.827-455.855l-.632-2.592,28.309-11.2-18.414-36.964a6.578,6.578,0,0,1-1.017.08l-31.284-.145.851,51.733,22.186-.906" transform="translate(-138.17 540.901)" fill="#f8f8f9"/>
                  <path id="path216" d="M245.314-526.484l.764,43.277-29.762-4.355,6.518-38.922Zm5.1,47.757-2.387-53.142-5.729-.026-22.4-.105-9.54,47.522,40.05,5.75" transform="translate(-117.281 546.115)" fill="#f8f8f9"/>
                  <path id="path218" d="M261.544-478.537v.451c.05,4.146.136,11.611.2,19.595l38.991-1.593-.851-51.782-23.6-.109a7.136,7.136,0,0,1-6.938-7.316l.022-5.206a7.136,7.136,0,0,0-6.937-7.316l-3.3-.015,2.394,53.29h.014" transform="translate(-127.326 546.08)" fill="#f8f8f9"/>
                  <path id="path226" d="M248.014-143.246l.333-41.773-33.361,2.361,1.177,40.919,31.851-1.517" transform="translate(-118.232 474.649)" fill="#f8f8f9"/>
                  <path id="path228" d="M263.876-154.6l47.248,22.634c.563-14.791,1.067-28.622,1.019-29.5l1.024-.055.5-1c.671.337.671.337.319,10.419-.2,5.626-.476,13.112-.761,20.6h16.34l-2.412-22.7-3.215-39.158-61.733,6.232,1.668,32.532" transform="translate(-127.958 476.368)" fill="#f8f8f9"/>
                  <path id="path230" d="M395.333-233.292,394.8-238.8l-56.633,5.891,2.383,29.021,48.9-4.935,5.886-24.471" transform="translate(-143.603 485.725)" fill="#f8f8f9"/>
                  <path id="path232" d="M306.169-350.262H285.014L282.6-339.334h23.569v-10.928" transform="translate(-132.159 508.684)" fill="#f8f8f9"/>
                  <path id="path234" d="M333.809-337.739l2.844-7.9,46.02,2.909,2.664,22.6L335.368-314.2Zm51.034-8.828-52.984-3.665L329.7-337.715l2.23,27.165,55.878-5.373-2.967-30.644" transform="translate(-141.86 508.677)" fill="#f8f8f9"/>
                  <path id="path236" d="M390.966-280.34l-2.327-24.029-55.909,5.375,2.1,25.57,56.137-6.918" transform="translate(-142.483 499.23)" fill="#f8f8f9"/>
                  <path id="path238" d="M210.43-97.367,188.743-96l-.089-1.412L188.627-91h21.99l-.183-6.364" transform="translate(-112.801 456.604)" fill="#f8f8f9"/>
                  <path id="path242" d="M218.571-138.029l46.01-3.229,29.936,13.888-75.94,4.11Zm83.1,8.854L253.44-152.281l-1.7-33.106-2.02.2-.342,42.871L216.5-140.754l.027.955.007.02h0l.636,22.1,84.259-5.329c.079-2.046.158-4.118.236-6.173" transform="translate(-118.546 474.724)" fill="#f8f8f9"/>
                  <path id="path246" d="M337.4-241.388l23.512-2.446L356.275-264.6,335.7-262.065l1.7,20.676" transform="translate(-143.096 491.039)" fill="#f8f8f9"/>
                  <path id="path248" d="M385.631-390.135l-43.92-.007-3.645-.273L333.1-361.656l52.131,3.608-1.211-12.5,5.131-18.47-3.527-1.114" transform="translate(-142.563 516.953)" fill="#f8f8f9"/>
                  <path id="path256" d="M337.839-405.921h6.1l-8.627-35.429-22.425.917.546,32.7,24.415,1.809" transform="translate(-138.395 527.444)" fill="#f8f8f9"/>
                  <path id="path258" d="M188.478-56.884l-.031,7.428c0,.231.026.451.031.682v-8.109" transform="translate(-112.766 448.257)" fill="#f8f8f9"/>
                  <path id="path260" d="M262.374-410.487l39.585,2.931-.539-32.584-39,1.593c.083,11.02.116,22.77-.049,28.056" transform="translate(-127.993 527.196)" fill="#f8f8f9"/>
                  <g id="Group_160228" data-name="Group 160228">
                    <path id="path130" d="M499.566-466s-8.219-4.552-16.272,14.882-10.816,30.494-10.816,30.494-2.21,4.114-5.1,1.773-7.144-9.317-11.613-7.652c-4.638,1.728-5.781,7.14-4.265,14.844s4.215,24.7,4.453,26.243c.233,1.51-.461,3.819-2.686,2.533s-15.435-13.863-21.027-7.239,2.156,27.391,2.96,29.679.424,3.32-.64,3.986-5.105-3.98-9-7.4-9.03-6.705-11.935-2.613-2.683,20.114,14.525,44.811l8.721,10.924,13.913-1.875c29.533-5.824,40.821-17.194,41.573-22.156s-5.216-6.16-10.4-6.411-11.321.286-11.621-.93.136-2.225,2.306-3.312,22.162-10.651,22.742-19.3-17.657-8.776-20.15-9.4-1.39-2.763-.173-3.683c1.239-.94,14.989-11.3,21.427-15.788s9.375-9.182,7.241-13.64c-2.06-4.3-9.957-2.241-13.671-2.559s-2.443-4.812-2.443-4.812,5.693-9.875,13.394-29.452-1.615-22.026-1.615-22.026" transform="translate(-168.613 509.428)" fill="#eee"/>
                    <g id="Group_160227" data-name="Group 160227">
                      <path id="path18" d="M93.135-196.044" transform="translate(-93.135 480.913)" fill="#fcfdfd"/>
                      <g id="Group_160238" data-name="Group 160238" transform="translate(241.272 333.244)">
                        <path id="path168" d="M128.941-31.727c-14.264-9.893-17.558-28.335-17.05-44.927.083-2.769-.229-5.688,1.078-8.121s4.378-4.106,6.861-2.948c2.06.955,2.964,3.35,4.122,5.319a16.2,16.2,0,0,0,6.52,6.175,6.172,6.172,0,0,0,5.688.5c2.383-1.327,2.654-4.628,2.627-7.382q-.075-7.7-.149-15.4a25.635,25.635,0,0,1,.8-8.184,8.544,8.544,0,0,1,5.348-5.8c2.617-.742,5.865.757,6.426,3.451a25.485,25.485,0,0,1,.09,3.429,2.9,2.9,0,0,0,1.7,2.721,3.327,3.327,0,0,0,3.02-1.274,36.622,36.622,0,0,0,6.54-9.949,50.868,50.868,0,0,1,6.094-10.263,14.892,14.892,0,0,1,10.072-5.695c3.943-.237,8.154,2.182,9.164,6.051s-1.238,7.826-3.692,10.979A61.48,61.48,0,0,1,171.449-100.8a5.047,5.047,0,0,0-2.133,2.311c-.592,1.837,1.154,3.655,2.968,4.254a32.039,32.039,0,0,0,6.43.7c2.148.244,4.478,1.184,5.3,3.209,1.138,2.811-1.206,5.77-3.516,7.711a52.65,52.65,0,0,1-15.549,9.051,17.752,17.752,0,0,0-5.782,2.836,5.1,5.1,0,0,0-1.612,5.845c.994,1.938,3.53,2.551,5.651,2.15a36.751,36.751,0,0,0,6.036-2.33c3.78-1.442,8.668-1.2,11.1,2.064a8.72,8.72,0,0,1,.955,7.705,20.106,20.106,0,0,1-4.152,6.82A52.966,52.966,0,0,1,154.586-32.5c-8.768,3.074-16.9,3.927-25.643.767" transform="translate(-111.842 130.087)" fill="#ffa439"/>
                        <path id="path170" d="M117.187-26.465c.578-6.574.874-6.709,3.3-15.083a246.566,246.566,0,0,1,9.7-26.6l2.9-6.842c.955-2.244,1.91-4.47,2.969-6.588A123.718,123.718,0,0,1,142.871-93.4c2.347-3.657,4.707-7.042,6.937-10.19s4.378-6.037,6.442-8.593a97.611,97.611,0,0,1,10.625-11.309c1.353-1.228,2.436-2.155,3.178-2.77l.847-.693a2.2,2.2,0,0,1,.3-.222,1.835,1.835,0,0,1-.273.263l-.818.732c-.719.64-1.773,1.585-3.111,2.837a103.255,103.255,0,0,0-10.479,11.391c-2.046,2.56-4.16,5.456-6.379,8.608s-4.558,6.547-6.889,10.2A124.859,124.859,0,0,0,136.5-81.353c-1.054,2.109-1.993,4.316-2.952,6.565s-1.918,4.531-2.9,6.839a253.154,253.154,0,0,0-9.713,26.535c-2.444,8.341-2.77,8.436-3.392,14.982" transform="translate(-99.144 129.492)" fill="#252b33"/>
                      </g>
                      <path id="path180" d="M356.183-113.512H208.846a33.417,33.417,0,0,1-32.774-33.064l1.569-371.092a32.244,32.244,0,0,1,32.392-32.108l148.021.682a32.244,32.244,0,0,1,32.094,32.379l-1.569,371.093a32.243,32.243,0,0,1-32.392,32.108" transform="translate(-110.215 549.776)" fill="#3c4653"/>
                      <path id="path182" d="M360.389-531.333l-28.7-.136a7.13,7.13,0,0,0-7,7.254l-.023,5.206a7.127,7.127,0,0,1-7,7.252l-55.939-.258a7.136,7.136,0,0,1-6.939-7.316l.022-5.206a7.136,7.136,0,0,0-6.937-7.318l-10.093-.046-25.119-.116a22.583,22.583,0,0,0-22.687,22.489l-1.53,362.212a22.581,22.581,0,0,0,22.477,22.679l147.725.682a22.583,22.583,0,0,0,22.686-22.486l1.53-362.214a22.583,22.583,0,0,0-22.477-22.677" transform="translate(-112.765 546.118)" fill="#f8f8f9"/>
                      <path id="path192" d="M209.751-127.426l-21.027,8.237-.064,14.895,21.717-1.374-.627-21.757" transform="translate(-112.811 462.786)" fill="#f8f8f9"/>
                      <path id="path194" d="M209.675-145.659l-1.148-39.947h-.016V-199.7l-19.5,2.066L188.76-137.5l20.908-8.184.007.02" transform="translate(-112.83 477.668)" fill="#f8f8f9"/>
                      <path id="path196" d="M208.578-239.964l-19.341-2.553-.136,32.872,19.483-2.064v-28.257" transform="translate(-112.899 486.491)" fill="#f8f8f9"/>
                      <path id="path204" d="M212.965-218.335s.243-36.614,0-37.981l26.188-13.932,3.394,50.041-29.582,1.871m27.207-61.63,1.6,2.744L209.678-258.5v44.4l33.873-2.4,65.282-6.588-2.391-29.107-62.365-8.147.409-3.149,61.688,8.06-4.044-49.261-61.058,5.865-.2-2.107,61.087-5.873-2.11-25.7H241.116l-51.579,9.387-.248,58.861,19.529,2.577,31.355-18.287" transform="translate(-112.939 505.024)" fill="#f8f8f9"/>
                      <path id="path210" d="M260.2-349.441l3.115-14.1h23.707v-30.3l-74.135-5.491v28.448l-23.156,5.238-.106,25.54L240.9-349.44h19.3" transform="translate(-113.007 518.791)" fill="#f8f8f9"/>
                      <path id="path220" d="M203.074-484.927l9.446-47.057a22.568,22.568,0,0,0-22.17,22.463l-.1,23.46.1-.69,12.724,1.826" transform="translate(-113.138 546.112)" fill="#f8f8f9"/>
                      <path id="path222" d="M209.738-400.008l-19.829-1.469-.136,32.13,19.966-4.515v-26.146" transform="translate(-113.039 519.233)" fill="#f8f8f9"/>
                      <path id="path224" d="M202.808-471.881l-12.617-1.81-.22,52.03,2.717.2,10.121-50.421" transform="translate(-113.079 534.106)" fill="#f8f8f9"/>
                      <path id="path254" d="M247.783-465.056l-40.294-5.785-10.077,50.206,50.547,3.744c.2-7.73.026-31.44-.177-48.166" transform="translate(-114.613 533.519)" fill="#f8f8f9"/>
                      <path id="path280" d="M210.8-211.17h0l-.007-.021-.027-.955,32.872-1.559.342-42.871,2.02-.2,1.7,33.106,48.227,23.106c-.078,2.057-.157,4.123-.236,6.173l-84.259,5.329-.637-22.1m32.124-45.319-.327,41.773L210.737-213.2l-1.177-40.919,33.356-2.357M312-223.942l2.411,22.7h-16.34c.285-7.488.565-14.974.761-20.6.352-10.082.352-10.082-.319-10.419l-.5,1-1.024.055c.048.881-.456,14.712-1.019,29.5l-47.241-22.654-1.668-32.532,61.731-6.229L312-223.96M307.369-293.3,364-299.19l.532,5.506-5.886,24.471-48.9,4.935L307.369-293.3m51.592-57.955,2.327,24.028-56.137,6.921-2.1-25.57,55.909-5.375m-58.314-23.9,2.159-12.517L355.79-384l2.967,30.644-55.881,5.366-2.23-27.165M265.659-387.7h21.155v10.928H263.247L265.66-387.7m41.59-31.961-7.4,42.886h-11.98V-421.1l19.377,1.436m-101.566-63.77,40.293,5.785c.2,16.726.381,40.436.177,48.165l-50.547-3.744,10.077-50.206m80.552,24.374.536,32.581-39.585-2.931c.164-5.285.136-17.037.049-28.056l39-1.593m23.484-.955,8.626,35.429h-6.1L287.834-426.4l-.546-32.7,22.425-.917m28.371-12.944,17.26,34.645-.546,13.726H320.525l-9.2-37.782,26.763-10.59m14.253-5.641c-.05,5.456,1.146,23.493,18.441,29.665l-1.972,11.7-10.759-2.781-17-34.121,11.29-4.467m3.137,91.394-52.128-3.613,4.959-28.758,3.645.273,43.92.007,3.527,1.114-5.131,18.471,1.211,12.5m-23.8,88.185-4.637-20.786,34.549-4.258,2.1,21.713-32.014,3.331m-5.695-20.656,4.638,20.765L307.1-296.463l-1.7-20.678,20.577-2.534M356.7-246.531l-25.936,1.956-1.773-9.058,22.846-2.463.818-11.446,5.729-.578-2.069,8.6.39,12.988m-30.962-18.3,3.968,20.333-18.22,1.373-1.65-20.1,15.9-1.605m1.057-.106,23.733-2.4-.661,9.316-21.267,2.293-1.8-9.215m-10.258,69.22-1.015-5.092-2.472-23.253-1.393-16.956,45.111-3.4,1.383,46.065-41.615,2.632m-18.726,1.184c.074-1.88.146-3.8.22-5.718l16.534.044.907,4.556-17.661,1.118m-87.38,7.648.183,6.364h1.06l-.186-6.431,84.118-5.319c-.16,4.133-.315,8.14-.457,11.752h2.121c.136-3.41.293-7.513.462-11.886l18.16-1.148,2.592,13.034h1.08l-2.612-13.1,41.262-2.611.471,15.713h5.284l-.481-16.046,18.059-1.143-.136-2.113-17.989,1.138-.968-32.27,19.056-1.071-.06-1.057-19.027,1.069-.81-26.962,2.337-9.714,17.931-1.81v-1.065l-17.673,1.783,5.66-23.531-.582-6.01c2.544.49,7.277,1.654,12.7,3.081l.014-3.3c-7.3-1.918-11.048-2.714-13.026-3.014l-4.766-49.209,18.019-1.734.01-2.128-18.232,1.753-2.883-29.767,21.227,1.469.014-3.184-21.551-1.491-1.2-12.412,4.818-17.344,18.043,5.7.023-5.545L357.953-424.2l.5-12.441,24.116,6.232.014-3.274-11.722-3.029,1.951-11.576c3.518,1.067,6.791,1.89,9.821,2.5v-1.091q-4.467-.9-9.649-2.455l1.945-11.541,7.761.6.008-2.122-9.535-.742-2.214,13.132c-5.647-2.131-18.141-9.128-17.548-29.028l29.417-11.642v-1.346l-.319-.806L353.4-481.316l-.031-50.05h-1.058l.031,50.467-12.261,4.853-18.414-36.994a6.737,6.737,0,0,1-2.952,1.2l18.414,36.964-28.309,11.2.633,2.592-22.188.906-.851-51.733H285.36l.851,51.782-38.985,1.6c-.061-7.983-.147-15.447-.2-19.595v-.451h-.014l-2.394-53.29H243.56l2.387,53.142L205.9-484.482,215.437-532l-2.728-.012c-.173,0-.341.022-.514.025l-9.446,47.057-12.724-1.826-.1.69v.366l12.617,1.81-10.121,50.421-2.717-.2-.022,5.307,19.829,1.469v26.146l-19.964,4.515-.015,3.26,23.156-5.238v-28.448l74.135,5.491v30.3H263.109l-3.115,14.1H240.7l-51.277,9.332-.014,3.23,51.579-9.387h58.731l2.111,25.7-61.087,5.873.2,2.107L302-345.778l4.044,49.261-61.682-8.06-.409,3.149,62.365,8.147,2.391,29.107-65.282,6.588-33.873,2.4v-44.4l32.094-18.719-1.6-2.744-31.355,18.287-19.529-2.577-.014,3.2,19.344,2.553v28.252l-19.482,2.064L189-266.081l19.5-2.065v14.089h.016l1.148,39.947-.007-.02-20.908,8.184-.015,3.418,21.027-8.237.627,21.757-21.716,1.374v.7l.089,1.412,21.687-1.372" transform="translate(-112.805 546.118)" fill="#fff"/>
                    </g>
                  </g>
                  <path id="path282" d="M265.116-129.811l-46.01,3.229v14.769l75.941-4.11-29.931-13.888" transform="translate(-119.08 463.277)" fill="#eee"/>
                  <path id="path284" d="M383.739-341.537l-46.02-2.909-2.844,7.9,1.559,23.537,49.969-5.925-2.664-22.6" transform="translate(-142.926 507.485)" fill="#eee"/>
                  <path id="path286" d="M210.932-33.461l147.725.682a22.583,22.583,0,0,0,22.687-22.486l.136-34.076H188.6l-.109,25.779v8.1a22.567,22.567,0,0,0,22.446,22" transform="translate(-112.775 454.943)" fill="#eee"/>
                  <path id="path288" d="M247.621-481.775l-.764-43.277H224.376l-6.518,38.922,29.762,4.355" transform="translate(-118.824 544.685)" fill="#eee"/>
                  <path id="path292" d="M219.106-240.164c.243,1.364,0,37.981,0,37.981l29.582-1.871L245.294-254.1l-26.188,13.932" transform="translate(-119.08 488.876)" fill="#eee"/>
                  <path id="path296" d="M292.9-437.685a6.18,6.18,0,0,1-6.18,6.18,6.179,6.179,0,0,1-6.18-6.183,6.179,6.179,0,0,1,6.179-6.176,6.18,6.18,0,0,1,6.182,6.181" transform="translate(-131.731 527.963)" fill="#fff"/>
                  <path id="path298" d="M286.71-430.389a6.142,6.142,0,0,1-1.664-.228,6.183,6.183,0,0,0,1.668.228h0m.263,0h0m-1.935-.225h0m3.65-.093a6.188,6.188,0,0,0,2.549-1.648,6.187,6.187,0,0,1-2.549,1.648m-6.454-1.6a6.2,6.2,0,0,1-1.228-1.866,6.177,6.177,0,0,0,1.228,1.866m9-.049.01-.01-.01.01m.015-.015h0m.014-.016h0m1.354-2.358h0m0,0a6.169,6.169,0,0,0,.273-1.818v-.034a6.194,6.194,0,0,1-.273,1.852m-12.088-1.766a6.2,6.2,0,0,1,.286-1.91,6.193,6.193,0,0,0-.286,1.863v.052" transform="translate(-131.732 526.846)" fill="#fdfefe"/>
                  <path id="path300" d="M294.2-441.1a6.192,6.192,0,0,0-1.245-1.228A6.223,6.223,0,0,1,294.2-441.1h0" transform="translate(-134.291 527.647)" fill="#fdfefe"/>
                  <path id="path302" d="M295.509-439.049c-.057-.145-.12-.289-.187-.428h0q.1.21.187.428" transform="translate(-134.778 527.059)" fill="#fdfefe"/>
                  <path id="path304" d="M295.158-439.745a6.134,6.134,0,0,0-.636-1.034h0a6.163,6.163,0,0,1,.634,1.034h0" transform="translate(-134.614 527.326)" fill="#fff"/>
                  <path id="path306" d="M282.473-441.767h0m.008-.01a6.158,6.158,0,0,1,4.365-2.084h.273a6.154,6.154,0,0,1,2.942.746,6.156,6.156,0,0,0-2.945-.745,6.164,6.164,0,0,0-4.638,2.088m8.32-.873-.012-.01.012.01m-.016-.012h0m-.015-.012h0m-.016-.011h0m-.016-.007h0m-.659-.409h0" transform="translate(-132.132 527.964)" fill="#fdfefe"/>
                  <path id="path310" d="M291.36-437.416a4.11,4.11,0,0,1-4.11,4.11,4.11,4.11,0,0,1-4.11-4.11,4.111,4.111,0,0,1,4.11-4.111,4.111,4.111,0,0,1,4.11,4.111" transform="translate(-132.269 527.481)" fill="#ff8a00"/>
                  <path id="path314" d="M371.39-190.3l-.641-14.8-44.6,2.169a6.747,6.747,0,0,1-3.369-.716L259.517-235.6a4.6,4.6,0,0,1-2.511-3.853l-8.605-167a2.8,2.8,0,0,1,.837-2.14,2.819,2.819,0,0,1,2.159-.79l27.112,2.009v-29.639h3.173v30.05a2.8,2.8,0,0,1-.892,2.046,2.815,2.815,0,0,1-2.107.741l-27.088-2.008,8.593,166.564a1.406,1.406,0,0,0,.771,1.183l63.258,31.951A3.531,3.531,0,0,0,326-206.1l44.972-2.182a2.807,2.807,0,0,1,2.027.73,2.782,2.782,0,0,1,.914,1.953l.653,15.169-3.173.136" transform="translate(-125.113 526.55)" fill="#ff8a00"/>
                  <path id="path316" d="M260.851-309.276a8.005,8.005,0,0,1-8.005,8.005,8,8,0,0,1-8-8.005,8,8,0,0,1,8-8,8,8,0,0,1,8.005,8.007" transform="translate(-124.382 501.89)" fill="#ff8a00"/>
                  <path id="path318" d="M259.039-308.645a5.559,5.559,0,0,1-5.555,5.561,5.56,5.56,0,0,1-5.561-5.561,5.561,5.561,0,0,1,5.561-5.555,5.561,5.561,0,0,1,5.561,5.561" transform="translate(-125.014 501.257)" fill="#fcfdfd"/>
                  <path id="path320" d="M253.377-313.909a5.169,5.169,0,0,0-5.165,5.163,5.169,5.169,0,0,0,5.163,5.163,5.169,5.169,0,0,0,5.163-5.163A5.169,5.169,0,0,0,253.377-313.909Zm0,11.12a5.963,5.963,0,0,1-5.958-5.958,5.963,5.963,0,0,1,5.958-5.958,5.963,5.963,0,0,1,5.958,5.958,5.963,5.963,0,0,1-5.958,5.958" transform="translate(-124.912 501.359)" fill="#ffe147"/>
                  <path id="path322" d="M303.548-349.486H265.433a3.354,3.354,0,0,0-3.355,3.354v13.8a3.354,3.354,0,0,0,3.355,3.354h.445v3.29l3.819-3.29h33.854a3.354,3.354,0,0,0,3.355-3.354v-13.8a3.354,3.354,0,0,0-3.355-3.354" transform="translate(-127.931 508.523)" fill="#f03658"/>
                  <path id="path324" d="M265.878-325.684v-3.29h-.445a3.354,3.354,0,0,1-3.355-3.354v-13.8a3.354,3.354,0,0,1,3.355-3.354h38.115a3.354,3.354,0,0,1,3.355,3.354v13.8a3.354,3.354,0,0,1-3.355,3.354H269.694l-3.819,3.29" transform="translate(-127.931 508.523)" fill="#252b33"/>
                  <path id="path326" d="M276.835-337.411a1.616,1.616,0,0,0-.477-1.188,1.616,1.616,0,0,0-1.191-.468,1.62,1.62,0,0,0-1.2.465,1.62,1.62,0,0,0-.482,1.191,1.621,1.621,0,0,0,.483,1.189,1.62,1.62,0,0,0,1.2.465,1.618,1.618,0,0,0,1.189-.469A1.618,1.618,0,0,0,276.835-337.411Zm-3.964,0a2.19,2.19,0,0,1,.674-1.6,2.19,2.19,0,0,1,1.623-.607,2.182,2.182,0,0,1,1.616.61,2.182,2.182,0,0,1,.667,1.594,2.183,2.183,0,0,1-.667,1.593,2.183,2.183,0,0,1-1.616.61,2.191,2.191,0,0,1-1.623-.607,2.191,2.191,0,0,1-.674-1.6" transform="translate(-130.155 506.489)" fill="#fff"/>
                  <path id="path328" d="M282.5-336.941a1.075,1.075,0,0,0-.3-.818,1.075,1.075,0,0,0-.8-.33,1.073,1.073,0,0,0-.8.333,1.073,1.073,0,0,0-.293.818,1.079,1.079,0,0,0,.293.818,1.079,1.079,0,0,0,.8.337,1.08,1.08,0,0,0,.8-.333,1.08,1.08,0,0,0,.3-.818Zm.6,0a1.588,1.588,0,0,1-.457,1.2,1.588,1.588,0,0,1-1.192.469,1.376,1.376,0,0,1-1.162-.554v.517h-.566v-4.567h.591v1.8a1.387,1.387,0,0,1,1.138-.522,1.583,1.583,0,0,1,1.192.466,1.583,1.583,0,0,1,.457,1.2" transform="translate(-131.563 506.545)" fill="#fff"/>
                  <path id="path330" d="M284.637-339.608a.389.389,0,0,1,.117-.273.389.389,0,0,1,.282-.11.382.382,0,0,1,.28.1.381.381,0,0,1,.12.273.386.386,0,0,1-.115.284.386.386,0,0,1-.285.11.384.384,0,0,1-.281-.106.384.384,0,0,1-.119-.273Zm-1.053,5.306.191-.456a.746.746,0,0,0,.48.154c.314,0,.487-.2.487-.571V-338.6h.591v3.41a.973.973,0,0,1-.265.787.973.973,0,0,1-.776.3,1.158,1.158,0,0,1-.707-.2" transform="translate(-132.362 506.57)" fill="#fff"/>
                  <path id="path332" d="M287.416-336.841h2.094a1.018,1.018,0,0,0-1.047-.934,1.016,1.016,0,0,0-1.046.934Zm2.646.426h-2.646a1.106,1.106,0,0,0,1.181.955,1.219,1.219,0,0,0,.943-.394l.326.382a1.637,1.637,0,0,1-1.286.529,1.637,1.637,0,0,1-1.245-.446,1.637,1.637,0,0,1-.509-1.221,1.6,1.6,0,0,1,.458-1.187,1.6,1.6,0,0,1,1.18-.476,1.573,1.573,0,0,1,1.178.483,1.573,1.573,0,0,1,.435,1.2l-.012.179" transform="translate(-133.029 506.214)" fill="#fff"/>
                  <path id="path334" d="M291.569-336.611a1.637,1.637,0,0,1,.5-1.206,1.637,1.637,0,0,1,1.228-.457,1.453,1.453,0,0,1,1.328.7l-.449.289a1.017,1.017,0,0,0-.887-.468,1.081,1.081,0,0,0-.818.325,1.081,1.081,0,0,0-.306.818,1.08,1.08,0,0,0,.3.818,1.08,1.08,0,0,0,.818.326,1.019,1.019,0,0,0,.887-.468l.449.282a1.46,1.46,0,0,1-1.329.7,1.637,1.637,0,0,1-1.228-.458,1.636,1.636,0,0,1-.5-1.21" transform="translate(-134.006 506.213)" fill="#fff"/>
                  <path id="path336" d="M298.142-335.349a1.113,1.113,0,0,1-.715.228.932.932,0,0,1-.762-.263.932.932,0,0,1-.273-.758v-1.791h-.554v-.486h.554v-.713h.591v.713h.936v.486h-.936v1.773a.481.481,0,0,0,.125.394.482.482,0,0,0,.386.151.743.743,0,0,0,.461-.154l.185.424" transform="translate(-134.885 506.392)" fill="#fff"/>
                  <path id="path338" d="M299.611-338.6h.592v3.261h-.592Zm-.1-1.009a.389.389,0,0,1,.116-.282.389.389,0,0,1,.285-.112.383.383,0,0,1,.273.1.384.384,0,0,1,.12.273.388.388,0,0,1-.116.282.388.388,0,0,1-.284.112.383.383,0,0,1-.281-.105.383.383,0,0,1-.119-.273" transform="translate(-135.642 506.567)" fill="#fff"/>
                  <path id="path340" d="M304.538-338.235l-1.428,3.261h-.6l-1.428-3.261h.617l1.12,2.616,1.144-2.616h.578" transform="translate(-135.965 506.206)" fill="#fff"/>
                  <path id="path342" d="M306.228-336.839h2.087a1.018,1.018,0,0,0-1.046-.934A1.016,1.016,0,0,0,306.228-336.839Zm2.646.426h-2.646a1.1,1.1,0,0,0,1.181.955,1.219,1.219,0,0,0,.941-.394l.326.382a1.637,1.637,0,0,1-1.286.529,1.637,1.637,0,0,1-1.245-.446,1.637,1.637,0,0,1-.509-1.228,1.6,1.6,0,0,1,.457-1.187,1.6,1.6,0,0,1,1.18-.476,1.572,1.572,0,0,1,1.178.483,1.572,1.572,0,0,1,.434,1.2l-.012.179" transform="translate(-136.903 506.212)" fill="#fff"/>
                  <path id="path344" d="M286.415-460.837a3.486,3.486,0,0,1-3.488-3.486,3.488,3.488,0,0,1,3.488-3.488,3.488,3.488,0,0,1,3.488,3.488,3.486,3.486,0,0,1-3.488,3.486Zm7.923-3.449a7.931,7.931,0,0,0-2.9-6.119,7.931,7.931,0,0,0-6.563-1.656,7.919,7.919,0,0,0-6.265,6.374,7.89,7.89,0,0,0,.971,5.408h0l.023.03c.3.513.682.878,1.069,1.417l4.6,6.094a1.432,1.432,0,0,0,1.142.569,1.432,1.432,0,0,0,1.142-.569l4.524-5.993a17.238,17.238,0,0,0,1.151-1.525l.016-.022h0a7.881,7.881,0,0,0,1.091-4" transform="translate(-131.312 533.801)" fill="#252b33"/>
                  <g id="Group_163324" data-name="Group 163324" transform="translate(18)">
                    <path id="path346" d="M233.455-69.211h-1.477v-.536h3.564v.536h-1.479v3.773h-.608v-3.773" transform="translate(-121.732 450.906)" fill="#1d2a30"/>
                    <path id="path348" d="M239.19-66.8a1.069,1.069,0,0,0-.293-.818,1.069,1.069,0,0,0-.8-.331,1.075,1.075,0,0,0-.8.329,1.075,1.075,0,0,0-.3.818,1.082,1.082,0,0,0,.3.818,1.082,1.082,0,0,0,.8.333,1.075,1.075,0,0,0,.8-.336,1.075,1.075,0,0,0,.292-.818Zm-2.793,0a1.625,1.625,0,0,1,.488-1.2,1.624,1.624,0,0,1,1.211-.461,1.619,1.619,0,0,1,1.209.462,1.619,1.619,0,0,1,.483,1.2,1.623,1.623,0,0,1-.483,1.2,1.623,1.623,0,0,1-1.209.466,1.629,1.629,0,0,1-1.213-.465,1.629,1.629,0,0,1-.487-1.2" transform="translate(-122.642 450.642)" fill="#1d2a30"/>
                    <path id="path350" d="M243.415-65.544a1.12,1.12,0,0,1-.715.229.932.932,0,0,1-.762-.263.931.931,0,0,1-.273-.76v-1.791h-.554v-.48h.554v-.715h.591v.715h.936v.486h-.936v1.773a.482.482,0,0,0,.125.394.482.482,0,0,0,.386.151.747.747,0,0,0,.461-.153l.186.423" transform="translate(-123.612 450.821)" fill="#1d2a30"/>
                    <path id="path352" d="M246.836-66.173v-.456h-.911c-.584,0-.75.226-.75.5,0,.327.273.529.72.529A.944.944,0,0,0,246.836-66.173Zm.591-.973v1.971h-.559v-.432a1.211,1.211,0,0,1-1.072.469c-.739,0-1.207-.394-1.207-.955,0-.524.338-.955,1.312-.955h.934v-.116c0-.5-.289-.788-.873-.788a1.646,1.646,0,0,0-1.034.352l-.245-.443a2.173,2.173,0,0,1,1.348-.419c.892,0,1.4.432,1.4,1.323" transform="translate(-124.329 450.645)" fill="#1d2a30"/>
                    <path id="path354" d="M249.542-70.072h.591V-65.5h-.591v-4.568" transform="translate(-125.35 450.973)" fill="#1d2a30"/>
                    <path id="path356" d="M256.2-67.136a1.074,1.074,0,0,0-.295-.818,1.074,1.074,0,0,0-.8-.333,1.075,1.075,0,0,0-.8.329,1.075,1.075,0,0,0-.3.818,1.082,1.082,0,0,0,.3.818,1.082,1.082,0,0,0,.8.333,1.079,1.079,0,0,0,.8-.337,1.079,1.079,0,0,0,.293-.818Zm.585-2.935V-65.5h-.566v-.518a1.379,1.379,0,0,1-1.163.555,1.589,1.589,0,0,1-1.192-.471,1.589,1.589,0,0,1-.457-1.2,1.584,1.584,0,0,1,.457-1.2,1.584,1.584,0,0,1,1.192-.466,1.391,1.391,0,0,1,1.139.524v-1.8h.591" transform="translate(-126.146 450.973)" fill="#1d2a30"/>
                    <path id="path358" d="M259.052-68.792h.591v3.263h-.591Zm-.105-1.009a.389.389,0,0,1,.117-.273.389.389,0,0,1,.282-.11.385.385,0,0,1,.273.105.385.385,0,0,1,.12.273.386.386,0,0,1-.115.284.386.386,0,0,1-.285.11.383.383,0,0,1-.281-.106.383.383,0,0,1-.119-.273" transform="translate(-127.288 450.998)" fill="#1d2a30"/>
                    <path id="path360" d="M260.719-65.519l.247-.468a2.087,2.087,0,0,0,1.144.34c.546,0,.776-.166.776-.443,0-.731-2.062-.1-2.062-1.4,0-.585.522-.979,1.364-.979a2.366,2.366,0,0,1,1.188.3l-.252.466a1.7,1.7,0,0,0-.943-.258c-.517,0-.769.191-.769.45,0,.768,2.069.136,2.069,1.409,0,.591-.546.967-1.41.967a2.353,2.353,0,0,1-1.348-.382" transform="translate(-127.651 450.643)" fill="#1d2a30"/>
                    <path id="path362" d="M266.836-65.544a1.121,1.121,0,0,1-.715.229.932.932,0,0,1-.763-.263.932.932,0,0,1-.273-.76v-1.791h-.554v-.48h.554v-.715h.591v.715h.936v.486h-.936v1.773a.48.48,0,0,0,.124.394.48.48,0,0,0,.386.151.747.747,0,0,0,.461-.153l.185.423" transform="translate(-128.437 450.821)" fill="#1d2a30"/>
                    <path id="path364" d="M270.26-66.173v-.456h-.911c-.584,0-.75.226-.75.5,0,.327.273.529.72.529a.945.945,0,0,0,.941-.578Zm.591-.973v1.971h-.561v-.432a1.21,1.21,0,0,1-1.071.469c-.738,0-1.206-.394-1.206-.955,0-.524.338-.955,1.311-.955h.936v-.116c0-.5-.291-.788-.874-.788a1.651,1.651,0,0,0-1.034.352l-.246-.443a2.173,2.173,0,0,1,1.348-.419c.892,0,1.4.432,1.4,1.323" transform="translate(-129.155 450.645)" fill="#1d2a30"/>
                    <path id="path366" d="M276.063-67.051v1.878h-.595v-1.81c0-.641-.32-.955-.88-.955a.97.97,0,0,0-.773.3.97.97,0,0,0-.261.787v1.68h-.592v-3.263h.567v.491a1.4,1.4,0,0,1,1.176-.524,1.264,1.264,0,0,1,1.013.386,1.264,1.264,0,0,1,.341,1.03" transform="translate(-130.176 450.641)" fill="#1d2a30"/>
                    <path id="path368" d="M277.889-66.8a1.637,1.637,0,0,1,.5-1.206,1.637,1.637,0,0,1,1.227-.457,1.454,1.454,0,0,1,1.33.7l-.45.289a1.015,1.015,0,0,0-.887-.468,1.083,1.083,0,0,0-.818.325,1.083,1.083,0,0,0-.307.818,1.082,1.082,0,0,0,.3.818,1.081,1.081,0,0,0,.818.327,1.016,1.016,0,0,0,.887-.469l.45.284a1.459,1.459,0,0,1-1.33.7,1.637,1.637,0,0,1-1.228-.458,1.637,1.637,0,0,1-.5-1.21" transform="translate(-131.188 450.642)" fill="#1d2a30"/>
                    <path id="path370" d="M282.844-67.031h2.094a1.017,1.017,0,0,0-1.046-.936A1.018,1.018,0,0,0,282.844-67.031Zm2.646.424h-2.646a1.106,1.106,0,0,0,1.183.955,1.219,1.219,0,0,0,.941-.4l.326.382a1.637,1.637,0,0,1-1.286.529,1.637,1.637,0,0,1-1.245-.446,1.637,1.637,0,0,1-.509-1.228A1.6,1.6,0,0,1,282.712-68a1.6,1.6,0,0,1,1.179-.476,1.574,1.574,0,0,1,1.177.484,1.574,1.574,0,0,1,.435,1.2l-.012.179" transform="translate(-132.087 450.641)" fill="#1d2a30"/>
                    <path id="path372" d="M237.558-58.236v10.279H235.18v-8.369h-2.056v-1.91h4.434" transform="translate(-121.967 448.536)" fill="#252b33"/>
                    <path id="path374" d="M243.725-47.323a3.421,3.421,0,0,1-.4,1.469l-.836,2.114H241.04l.645-2.335a1.277,1.277,0,0,1-.792-1.248,1.364,1.364,0,0,1,.409-1.018,1.364,1.364,0,0,1,1.022-.393,1.35,1.35,0,0,1,1.016.394,1.35,1.35,0,0,1,.394,1.016" transform="translate(-123.568 446.576)" fill="#252b33"/>
                    <path id="path376" d="M249.357-58.236v10.279h-2.379v-8.369h-2.056v-1.91h4.434" transform="translate(-124.397 448.536)" fill="#252b33"/>
                    <path id="path378" d="M259.179-53.141c0-2.335-.818-3.3-2.012-3.3s-2,.97-2,3.3.818,3.3,2,3.3S259.179-50.807,259.179-53.141Zm-6.411,0c0-3.392,1.881-5.319,4.406-5.319s4.406,1.925,4.406,5.319-1.865,5.319-4.406,5.319-4.406-1.923-4.406-5.319" transform="translate(-126.011 448.581)" fill="#252b33"/>
                    <path id="path380" d="M271.736-53.141c0-2.335-.818-3.3-2.012-3.3s-2,.97-2,3.3.818,3.3,2,3.3S271.736-50.807,271.736-53.141Zm-6.411,0c0-3.392,1.88-5.319,4.406-5.319s4.406,1.925,4.406,5.319-1.866,5.319-4.406,5.319-4.406-1.923-4.406-5.319" transform="translate(-128.598 448.581)" fill="#252b33"/>
                    <path id="path382" d="M297.071-51.891v4.523H294.78v-4.17c0-1.277-.573-1.865-1.5-1.865-1.028,0-1.749.66-1.749,2.071v3.965h-2.291v-4.17c0-1.277-.546-1.865-1.5-1.865-1.013,0-1.734.66-1.734,2.071v3.965h-2.291v-7.9H285.9v.911a3.2,3.2,0,0,1,2.481-1.028,2.947,2.947,0,0,1,2.6,1.293,3.546,3.546,0,0,1,2.849-1.293,3.059,3.059,0,0,1,2.455.977,3.059,3.059,0,0,1,.78,2.518" transform="translate(-132.392 447.948)" fill="#252b33"/>
                  </g>
                  <g id="Group_163323" data-name="Group 163323" transform="translate(18)">
                    <path id="path384" d="M220.887-61.544a8.866,8.866,0,0,1-8.866,8.866,8.866,8.866,0,0,1-8.866-8.866,8.866,8.866,0,0,1,8.866-8.866,8.866,8.866,0,0,1,8.866,8.866" transform="translate(-115.795 451.043)" fill="#ff8a00"/>
                    <path id="path386" d="M209.747-58.689a13.6,13.6,0,0,1,2.278-.136c1.449-.041,3.516-.075,6-.1l-.181.4-2.261-2.613-.136-.165.136-.172,2.223-2.793.214.447h-1.008l-7.266-.029.247-.248c-.022,2.69-.057,4.951-.1,6.547a15.4,15.4,0,0,1-.147,2.506,15.819,15.819,0,0,1-.146-2.506c-.042-1.589-.078-3.85-.1-6.547v-.244h.248l7.266-.029H218.6l-.363.447-2.249,2.777v-.338l2.223,2.645.336.4h-.518c-2.481-.023-4.549-.057-6-.1a13.584,13.584,0,0,1-2.278-.136" transform="translate(-117.101 449.8)" fill="#252b33"/>
                  </g>
                </g>
              </g>
              <g id="Group_160232" data-name="Group 160232" transform="translate(210.402 378.466)">
                <path id="path388" d="M386.6-78.293H359.8a5.127,5.127,0,0,0-5.126,5.127v21.094a5.127,5.127,0,0,0,5.126,5.127h.682v5.028l5.831-5.028H386.6a5.127,5.127,0,0,0,5.126-5.127V-73.166a5.127,5.127,0,0,0-5.126-5.127" transform="translate(-354.678 78.293)" fill="#252b33"/>
                <path id="path390" d="M364.352-66.218V-55.4a.422.422,0,0,0,.421.42h22.676a.42.42,0,0,0,.3-.124.42.42,0,0,0,.121-.3l-.052-3.956-.085-.248-3.252-4.347a.421.421,0,0,0-.334-.169l-3.748-.03a.418.418,0,0,1-.3-.123.419.419,0,0,1-.123-.3v-1.637a.421.421,0,0,0-.421-.421H364.773a.421.421,0,0,0-.421.421" transform="translate(-356.672 75.893)" fill="#fcfdfd"/>
                <path id="path392" d="M385.366-62.409v3.47a.241.241,0,0,0,.072.172.241.241,0,0,0,.173.07l5.006-.089a.243.243,0,0,0,.21-.136.243.243,0,0,0-.014-.247l-2.339-3.452-.206-.106-2.665.071a.243.243,0,0,0-.235.243" transform="translate(-360.999 75.084)" fill="#252b33"/>
                <path id="path394" d="M388.2-50.788H363.778v-.753H388.2v.753" transform="translate(-356.553 72.782)" fill="#fcfdfd"/>
                <path id="path396" d="M372.7-51.805a2.416,2.416,0,0,1-2.416,2.416,2.416,2.416,0,0,1-2.416-2.416,2.416,2.416,0,0,1,2.416-2.416,2.416,2.416,0,0,1,2.416,2.416" transform="translate(-357.395 73.334)" fill="#252b33"/>
                <path id="path398" d="M371.958-51.547a1.421,1.421,0,0,1-1.421,1.421,1.421,1.421,0,0,1-1.421-1.421,1.423,1.423,0,0,1,1.421-1.423,1.423,1.423,0,0,1,1.421,1.423" transform="translate(-357.653 73.078)" fill="#fcfdfd"/>
                <path id="path400" d="M383.985-54.981c-.06,0-.111-2.609-.111-5.828s.049-5.831.111-5.831.11,2.611.11,5.831-.049,5.828-.11,5.828" transform="translate(-360.692 75.892)" fill="#252b33"/>
                <path id="path402" d="M389.279-51.805a2.416,2.416,0,0,1-2.416,2.416,2.416,2.416,0,0,1-2.416-2.416,2.416,2.416,0,0,1,2.416-2.416,2.416,2.416,0,0,1,2.416,2.416" transform="translate(-360.809 73.334)" fill="#252b33"/>
                <path id="path404" d="M388.542-51.547a1.421,1.421,0,0,1-1.421,1.421,1.421,1.421,0,0,1-1.421-1.421,1.423,1.423,0,0,1,1.421-1.423,1.423,1.423,0,0,1,1.421,1.423" transform="translate(-361.068 73.078)" fill="#fcfdfd"/>
                <path id="path406" d="M387.1-56.822c0,.061-.346.112-.773.112s-.773-.05-.773-.112.346-.11.773-.11.773.049.773.11" transform="translate(-361.038 73.893)" fill="#252b33"/>
              </g>
            </g>
            <path id="path312" d="M407.249-125.906a2.641,2.641,0,0,1-2.641,2.641,2.641,2.641,0,0,1-2.642-2.641,2.642,2.642,0,0,1,2.642-2.641,2.641,2.641,0,0,1,2.641,2.641" transform="translate(-156.744 461.653)" fill="#ff8a00"/>
          </g>
          <g id="Group_160237" data-name="Group 160237" transform="translate(16 288.18)">
            <path id="path418" d="M770.671-66.407A43.29,43.29,0,0,0,813.331-22.5,43.29,43.29,0,0,0,857.24-65.159a43.29,43.29,0,0,0-42.661-43.909,43.288,43.288,0,0,0-43.908,42.661" transform="translate(-483.113 270.678)" fill="#3c4653"/>
            <path id="path420" d="M770.679-55.48l-.007.112a43.291,43.291,0,0,0,42.66,43.909A43.29,43.29,0,0,0,857.241-54.12v-.112L770.684-55.48" transform="translate(-483.113 259.639)" fill="#3c4653"/>
            <path id="path422" d="M786.912-62.875a30.392,30.392,0,0,0,29.95,30.826A30.393,30.393,0,0,0,847.688-62a30.392,30.392,0,0,0-29.951-30.826,30.392,30.392,0,0,0-30.826,29.951" transform="translate(-486.458 267.333)" fill="#fcfdfd"/>
            <path id="path424" d="M817.74-92.826a30.392,30.392,0,0,0-30.826,29.951L847.693-62a30.392,30.392,0,0,0-29.95-30.826" transform="translate(-486.459 267.333)" fill="#e3e3e2"/>
            <path id="path426" d="M801.87-59.624a18.513,18.513,0,0,0,18.245,18.778,18.513,18.513,0,0,0,18.779-18.242A18.514,18.514,0,0,0,820.65-77.867,18.516,18.516,0,0,0,801.87-59.624" transform="translate(-489.539 264.252)" fill="#3c4653"/>
            <path id="path428" d="M791.5-134.936s44.329-13.405,62.653,34.746L761.4-71.464,791.5-134.936" transform="translate(-481.207 276.358)" fill="#ffa439"/>
            <path id="path442" d="M418.022-130.3s-2.062-42.188,37.584-50.977v-5.41H594.5v12.9s-20.386,24.552-13.73,44.933,8.738,22.466,8.738,22.466h79.048a54.1,54.1,0,0,0,9.986-29.956c.409-17.889-7.018-48.48-12.568-68.035-5.047-17.779-8.237-32.647-8.237-32.647l23.715-7.9s43.88,57.373,45.671,60.6,7.888,10.755,6.453,27.244-40.866,67.394-51.262,73.131-19.716,6.093-29.038,7.528c-8.09,1.245-67.926.421-83.586.183a30.657,30.657,0,0,1-15.454-4.292c-4.681-2.84-8.2-7.535-12.086-15.249L533.9-111.921,418.022-130.3" transform="translate(-410.476 298.661)" fill="#ffa439"/>
            <path id="path454" d="M516.5-190.833H430.649a9.083,9.083,0,0,1-9.083-9.083v-56.059a9.083,9.083,0,0,1,9.083-9.083H516.5a9.083,9.083,0,0,1,9.083,9.083v56.059a9.083,9.083,0,0,1-9.083,9.083" transform="translate(-411.21 302.807)" fill="#3c4653"/>
            <path id="path458" d="M604.023-165.461c0,.151-31.216.273-69.713.273s-69.721-.125-69.721-.273,31.209-.273,69.721-.273,69.713.124,69.713.273" transform="translate(-420.07 282.35)" fill="#1d2a30"/>
            <path id="path460" d="M623.509-175.228a12.015,12.015,0,0,0,2.51-6.222c.22-3.489-1.372-7.85-5.126-7.85H572.935a14.071,14.071,0,0,0-14.071,14.071h64.652" transform="translate(-439.488 287.202)" fill="#3c4653"/>
            <path id="path462" d="M717.5-247.185l-8.341-17.4a10.648,10.648,0,0,1,4.216-13.6l24.939-14.877a8.432,8.432,0,0,1,4.314-1.188h5.389l2.159,35.158-8.32,3.181,5.262,8.559-29.624.168" transform="translate(-470.243 308.818)" fill="#ffa439"/>
            <path id="path464" d="M758.454-292.643s8.532,1.956,9.607,15.111-7.526,17.25-7.526,17.25l-2.08-32.362" transform="translate(-480.597 308.487)" fill="#eee"/>
            <path id="path466" d="M718.048-265.817s-17.25,8.176-19.355,9.518a4.01,4.01,0,0,0-1.562,5.427c1.952,4.887,10.02.289,10.02.289l16.054-8.026s6.173-2.915,3.894-6.559c-2.552-4.082-9.044-.648-9.044-.648" transform="translate(-467.883 303.24)" fill="#3c4653"/>
            <path id="path470" d="M721.126-300.722c0,6.559-3.016,11.876-6.737,11.876s-6.735-5.319-6.735-11.876,3.016-11.876,6.735-11.876,6.737,5.319,6.737,11.876" transform="translate(-470.135 312.598)" fill="#3c4653"/>
            <path id="path474" d="M631.418-77.757h0m0,0c-.026-.026-1.745-1.821-6.973-17.168l.064.181c5.183,15.176,6.884,16.961,6.908,16.987M623.411-98q-.356-1.072-.731-2.222a26.922,26.922,0,0,1-1.185-5.686,33.943,33.943,0,0,0,.919,4.774c.282,1.026.67,2.1,1,3.128" transform="translate(-452.389 270.026)" fill="#969796"/>
            <path id="path476" d="M682.353-86.054c-12.828,0-28.113-.882-41.7-1.927-16.368-1.26-25.906-19.165-19.663-44.592v.052a26.918,26.918,0,0,0,1.185,5.686q.375,1.15.731,2.222a.026.026,0,0,1,0,.008c.334,1.048.682,2.069,1.031,3.068,5.228,15.347,6.948,17.141,6.973,17.168h79.048a54.1,54.1,0,0,0,9.986-29.956c.011-.488.016-.988.016-1.5,0-18.059-7.187-47.519-12.583-66.539-5.047-17.779-8.237-32.647-8.237-32.647h0l20.556-.116c5.682,10.512,17.805,33.963,25.611,56.374,10.481,30.1-6.625,61.362-8.506,64.319s-9.772,20.882-31.275,26.528c-5.1,1.337-13.427,1.847-23.181,1.847" transform="translate(-451.887 296.64)" fill="#3c4653"/>
            <path id="path478" d="M719.921-236.484l17.417-5.805s1.191,2.084,3.137,5.689l-20.556.116" transform="translate(-472.662 298.117)" fill="#ffa439"/>
            <path id="path486" d="M767.443-74.28q1.283-1.466,2.615-3.044a267.391,267.391,0,0,0,19.217-25.359c8.729-12.83,15.686-25.351,16.272-32.1q.083-.955.136-1.859h.651c1.588.012,4.036.115,6.182.316.955.1,1.933.233,2.923.4l.082.016s-18.752,50.97-48.075,61.652" transform="translate(-482.449 276.36)" fill="#ff8a00"/>
            <path id="path488" d="M767.351-74.25s1-1.1,2.688-3.072q-1.331,1.577-2.615,3.044l-.074.026m21.9-28.431c7.075-10.695,13.776-22.937,16.406-33.963q-.049.91-.136,1.859c-.588,6.753-7.545,19.274-16.272,32.1" transform="translate(-482.43 276.359)" fill="#bc283b"/>
            <path id="path490" d="M804.785-152.154a5.571,5.571,0,0,1,.172.883c.083.582.254,1.44.362,2.556a39.394,39.394,0,0,1-.247,9.482,48.389,48.389,0,0,1-4.189,13.423,152.349,152.349,0,0,1-8.409,15.032,200.467,200.467,0,0,1-18.592,25.142c-2.591,3.053-4.719,5.487-6.2,7.164l-1.719,1.919a5.389,5.389,0,0,1-.629.644,5.577,5.577,0,0,1,.546-.716l1.637-1.986,6.067-7.275a216.075,216.075,0,0,0,18.414-25.176,158.927,158.927,0,0,0,8.427-14.963,49.151,49.151,0,0,0,4.266-13.27,41.865,41.865,0,0,0,.418-9.411c-.074-1.113-.211-1.971-.258-2.557a5.31,5.31,0,0,1-.063-.9" transform="translate(-482.013 279.549)" fill="#1d2a30"/>
            <g id="Group_160236" data-name="Group 160236" transform="translate(0 111.701)">
              <g id="Group_160235" data-name="Group 160235" transform="translate(0 0)">
                <path id="path430" d="M434.289-66.407A43.291,43.291,0,0,0,476.95-22.5a43.29,43.29,0,0,0,43.908-42.661A43.29,43.29,0,0,0,478.2-109.068a43.288,43.288,0,0,0-43.908,42.661" transform="translate(-413.829 158.977)" fill="#3c4653"/>
                <path id="path432" d="M434.3-55.48l-.007.112a43.291,43.291,0,0,0,42.661,43.909A43.29,43.29,0,0,0,520.859-54.12v-.112L434.305-55.48" transform="translate(-413.828 147.938)" fill="#3c4653"/>
                <path id="path434" d="M450.531-62.875A30.391,30.391,0,0,0,480.48-32.049,30.391,30.391,0,0,0,511.305-62a30.391,30.391,0,0,0-29.95-30.826,30.391,30.391,0,0,0-30.826,29.951" transform="translate(-417.175 155.632)" fill="#fcfdfd"/>
                <path id="path436" d="M481.359-92.826a30.391,30.391,0,0,0-30.826,29.951L511.309-62a30.391,30.391,0,0,0-29.95-30.826" transform="translate(-417.175 155.632)" fill="#e3e3e2"/>
                <path id="path438" d="M465.491-59.624a18.512,18.512,0,0,0,18.243,18.778,18.512,18.512,0,0,0,18.778-18.242,18.515,18.515,0,0,0-18.245-18.779,18.515,18.515,0,0,0-18.776,18.243" transform="translate(-420.256 152.551)" fill="#3c4653"/>
                <path id="path440" d="M547.178-77.344c-.241.121-22.778-3.485-22.778-3.485a13.8,13.8,0,0,1-10.283,5.382c-9.735.465-19.257.895-27.5,1.263A13.96,13.96,0,0,0,473.29-59.648v.011A13.975,13.975,0,0,0,486.7-46.262l47.938,1.89c7.881.311,18.362-4.481,23.283-10.639L547.178-77.339" transform="translate(-421.861 153.159)" fill="#3c4653"/>
                <path id="path444" d="M426.693-104.262l-17.5,27.4a4.272,4.272,0,0,0,.307,5.04,4.272,4.272,0,0,0,4.9,1.228,20.174,20.174,0,0,0,5.865-3.98c8-7.612,22.263-27.663,22.263-27.663l-15.838-2.025" transform="translate(-408.518 157.986)" fill="#3c4653"/>
                <path id="path446" d="M558.311-110.435a2.4,2.4,0,0,1,.1-.4l.352-1.151a29.93,29.93,0,0,0,.917-4.522,31.918,31.918,0,0,0-2.708-16.535,34.6,34.6,0,0,0-6.445-9.691,42.356,42.356,0,0,0-10.632-8.11,53.683,53.683,0,0,0-13.872-5.163,72.624,72.624,0,0,0-15.845-1.637,119.933,119.933,0,0,0-15.935,1.169c-5.123.69-10.042,1.54-14.67,2.592a86.58,86.58,0,0,0-23.56,8.716A58.594,58.594,0,0,0,442.552-134.9c-1.4,1.442-2.4,2.641-3.068,3.459l-.752.94a2.157,2.157,0,0,1-.273.31,35.57,35.57,0,0,1,3.935-4.856,57.171,57.171,0,0,1,13.426-10.463,85.883,85.883,0,0,1,23.639-8.874c4.637-1.075,9.575-1.937,14.712-2.637a119.2,119.2,0,0,1,16.008-1.185,72.736,72.736,0,0,1,15.959,1.663,54.015,54.015,0,0,1,14,5.244,42.64,42.64,0,0,1,10.721,8.243,34.83,34.83,0,0,1,6.468,9.846,31.721,31.721,0,0,1,2.563,16.72,27.477,27.477,0,0,1-1.023,4.526c-.171.479-.306.857-.409,1.136a2.187,2.187,0,0,1-.156.382" transform="translate(-414.69 169.093)" fill="#1d2a30"/>
                <path id="path448" d="M571.285-117.66c-.06-.023.232-.666.524-1.878a13.7,13.7,0,0,0,.158-5.244,21.681,21.681,0,0,0-2.581-7.355,26.02,26.02,0,0,0-2.559-3.85,23.605,23.605,0,0,0-3.441-3.565,30.338,30.338,0,0,0-8.262-4.833,38.524,38.524,0,0,0-7.58-2.071,50.489,50.489,0,0,0-5.284-.6,15.752,15.752,0,0,1-1.953-.15,1.824,1.824,0,0,1,.507-.048c.331,0,.818-.035,1.454-.016a39.944,39.944,0,0,1,5.337.43,36.709,36.709,0,0,1,7.7,1.982,30.007,30.007,0,0,1,8.432,4.882,23.691,23.691,0,0,1,3.511,3.654,25.642,25.642,0,0,1,2.582,3.943,21.389,21.389,0,0,1,2.521,7.544,13.089,13.089,0,0,1-.336,5.351,7.741,7.741,0,0,1-.5,1.364,1.711,1.711,0,0,1-.229.453" transform="translate(-435.666 166.845)" fill="#f8f8f9"/>
                <path id="path450" d="M589.662-107.295a14.282,14.282,0,0,0-3.374-.818l-6.109-.7c.181-.409.349-.835.507-1.271a2.81,2.81,0,0,0,.154-.379c.1-.281.235-.657.409-1.136a27.446,27.446,0,0,0,1.023-4.526,31.719,31.719,0,0,0-2.567-16.721,34.833,34.833,0,0,0-6.468-9.847,42.641,42.641,0,0,0-10.721-8.242,54.01,54.01,0,0,0-14-5.244q-.713-.161-1.434-.306a48.8,48.8,0,0,1,34.345,16.034c7.938,8.626,11.535,22.147,8.233,33.164" transform="translate(-437.062 168.744)" fill="#3c4653"/>
                <path id="path452" d="M580.27-110.095A31.335,31.335,0,0,0,580-130.609a36.944,36.944,0,0,0-14.016-17.4,55.571,55.571,0,0,0-20.915-8.514c.536,0,1.068.01,1.6.026q.722.145,1.434.306a54.015,54.015,0,0,1,14,5.244,42.639,42.639,0,0,1,10.721,8.243,34.829,34.829,0,0,1,6.468,9.846,31.721,31.721,0,0,1,2.563,16.72,27.446,27.446,0,0,1-1.023,4.526c-.17.479-.306.857-.409,1.136a2.75,2.75,0,0,1-.154.379" transform="translate(-436.647 168.75)" fill="#16191b"/>
                <path id="path480" d="M414.038-110.465l.556-6.031L558.877-99.875a14.252,14.252,0,0,1,9.776,5.651,14.252,14.252,0,0,1,2.592,10.99l-.647,3.657-149.328-21.7a8.495,8.495,0,0,1-7.237-9.188" transform="translate(-409.652 160.506)" fill="#252b33"/>
                <path id="path482" d="M570.6-79.577l-50.231-7.3-8.259-1.2-19.577-2.845-30.781-4.472L439.22-98.667l-15.167-2.2-2.78-.409a8.495,8.495,0,0,1-7.273-8.4c0-.259.012-.522.035-.786l.556-6.031L558.874-99.877a14.258,14.258,0,0,1,12.595,14.154,14.319,14.319,0,0,1-.221,2.487l-.646,3.657" transform="translate(-411.015 160.505)" fill="#3c4653"/>
                <path id="path496" d="M546.381-42.7a21.365,21.365,0,0,0,4.333-5.5,19.017,19.017,0,0,0,2.122-7.248,17.723,17.723,0,0,0-1.541-9.039,17.714,17.714,0,0,0-6.056-6.888,19.04,19.04,0,0,0-6.97-2.911,21.342,21.342,0,0,0-7-.1,1.67,1.67,0,0,1,.472-.136,10.776,10.776,0,0,1,1.393-.273,16.584,16.584,0,0,1,5.21.125,18.86,18.86,0,0,1,7.179,2.864,17.953,17.953,0,0,1,6.274,7.072,17.961,17.961,0,0,1,1.549,9.324,18.909,18.909,0,0,1-2.287,7.386,16.588,16.588,0,0,1-3.181,4.127,10.883,10.883,0,0,1-1.091.911c-.258.2-.4.295-.409.273" transform="translate(-433.805 151.948)" fill="#1d2a30"/>
                <path id="path498" d="M483.8-50.913A23.719,23.719,0,0,1,483.281-56a23.837,23.837,0,0,1,.033-5.115,23.986,23.986,0,0,1,.518,5.089,23.948,23.948,0,0,1-.031,5.115" transform="translate(-423.908 149.1)" fill="#1d2a30"/>
                <path id="path500" d="M488.4-50.909a24.331,24.331,0,0,1-.926-5.077,24.237,24.237,0,0,1-.379-5.146,24.387,24.387,0,0,1,.926,5.077,24.325,24.325,0,0,1,.379,5.146" transform="translate(-424.688 149.103)" fill="#1d2a30"/>
                <path id="path502" d="M543.381-171.65c0,.153-17.543.273-39.177.273s-39.181-.123-39.181-.273,17.539-.273,39.181-.273,39.177.124,39.177.273" transform="translate(-420.16 171.923)" fill="#1d2a30"/>
                <path id="path508" d="M445.078-32.881a2.894,2.894,0,0,1-.46-.465c-.282-.323-.734-.779-1.237-1.425a41.081,41.081,0,0,1-3.906-5.741,44.654,44.654,0,0,1-5.793-21.976,44.654,44.654,0,0,1,5.974-21.933,41.048,41.048,0,0,1,3.956-5.708c.509-.642.963-1.091,1.247-1.416a3,3,0,0,1,.469-.462,3.042,3.042,0,0,1-.386.536c-.258.345-.682.818-1.162,1.476A46.419,46.419,0,0,0,440-84.229a45.584,45.584,0,0,0-5.763,21.743A45.575,45.575,0,0,0,439.816-40.7a46.573,46.573,0,0,0,3.735,5.8c.475.664.9,1.139,1.151,1.487a3,3,0,0,1,.381.546" transform="translate(-413.703 155.463)" fill="#365462"/>
              </g>
            </g>
          </g>
        </g>
      </g>
    </g>
  </g>
</svg>
