<svg width="150" height="148" viewBox="0 0 150 148" fill="none" xmlns="http://www.w3.org/2000/svg">
<path d="M130.431 27.8877C137.277 27.6231 147.892 29.5707 147.892 29.5707C147.892 29.5707 134.027 29.7064 125.382 31.4641C117.616 33.0432 106.028 37.5651 106.028 37.5651L84.1492 45.1387C84.1492 45.1387 79.1592 41.035 75.3135 39.8793C70.7501 38.5078 63.1119 39.8793 63.1119 39.8793L30.2937 51.4501C30.2937 51.4501 29.5999 53.1395 29.873 54.185C30.0975 55.0448 30.4544 55.5072 31.1352 56.0784C31.6981 56.5507 32.8182 56.9199 32.8182 56.9199L63.5326 45.9802C63.5326 45.9802 64.4447 46.3438 64.7949 46.8218C65.1483 47.3042 65.2487 47.6972 65.2156 48.2944C65.181 48.9191 64.5845 49.7671 64.5845 49.7671L33.4493 60.9171C33.4493 60.9171 32.6974 62.4263 33.0285 63.4417C33.3395 64.3951 33.9988 65.3639 34.9219 65.7558C35.6025 66.0448 36.8153 65.7558 36.8153 65.7558L66.2675 55.2369C66.2675 55.2369 67.4947 55.2895 67.7401 55.6577C68.1608 56.2888 68.3121 56.8516 68.3712 57.5511C68.4201 58.1299 68.1608 58.8133 68.1608 58.8133L36.8153 69.9634C36.8153 69.9634 36.3247 71.2322 36.3945 72.0672C36.4683 72.949 36.6108 73.5448 37.236 74.171C37.8078 74.7435 39.1294 75.0125 39.1294 75.0125L70.0542 64.2832C70.0542 64.2832 70.7612 64.4267 71.106 64.7039C71.7746 65.2413 71.8166 65.9536 71.7372 66.8077C71.6891 67.3251 71.3164 68.07 71.3164 68.07L40.1812 79.0097C40.1812 79.0097 39.4364 80.0997 39.3397 80.9031C39.2063 82.0125 39.3418 82.9004 40.1812 83.638C40.8849 84.2563 42.4953 84.2691 42.4953 84.2691L77.2069 72.0672C77.2069 72.0672 81.9382 68.2572 84.1492 65.1247C86.353 62.0023 88.3566 56.2888 88.3566 56.2888C88.3566 56.2888 102.852 49.4173 112.76 49.3463C121.448 49.2841 128.1 50.2299 135.48 54.8161C143.436 59.7605 148.918 69.6825 149.786 79.0097C150.627 88.0559 149.017 94.2523 144.526 103.624C141.791 109.332 138.005 115.826 131.062 123.61C123.182 132.446 113.391 138.617 100.769 143.175C88.4349 147.629 76.3654 148.435 62.2704 145.489C48.1754 142.544 48.5961 142.544 36.8153 135.601C29.8496 131.497 19.7751 121.085 19.7751 121.085C19.7751 121.085 27.2687 119.529 31.5559 117.299C34.649 115.69 38.919 112.249 38.919 112.249C38.919 112.249 30.0992 115.216 23.7721 115.826C19.7651 116.212 16.6256 116.25 12.6224 115.826C7.49032 115.282 0 113.091 0 113.091C0 113.091 8.41273 114.232 14.095 113.933C20.2092 113.61 24.125 112.817 30.0833 111.408C41.3405 108.746 47.354 106.601 58.2733 102.782C66.1797 100.018 78.0484 94.1569 78.0484 94.1569C78.0484 94.1569 82.7418 98.2177 87.9359 99.4164C93.4056 100.679 99.1558 101.14 104.345 99.8371C108.949 98.6814 111.809 97.9197 115.705 95.2088C120.533 91.8498 123.868 88.6871 125.382 84.9003C127.063 80.6985 127.065 77.3266 125.382 73.3295C124.231 70.5945 121.2 67.4389 118.861 66.1766C113.614 63.3459 109.657 62.9715 103.714 63.4417C98.8753 63.8244 92.4296 65.9093 88.3566 68.4907C84.2837 71.0722 82.2558 72.6983 79.3106 76.6955C77.9984 78.4764 76.155 82.3757 76.155 82.3757C76.155 82.3757 64.8542 88.3391 57.0111 90.3701C49.326 92.3602 44.729 93.312 36.8153 92.6843C29.2659 92.0854 24.5773 91.5459 18.0921 87.6352C11.4191 83.6113 7.87357 80.0391 5.25932 72.6983C3.53614 67.8596 3.26931 60.4964 4.83858 55.6577C7.36305 47.8736 9.18135 43.7279 13.2535 36.7236C18.5128 27.6773 26.2966 19.3002 34.5012 13.5819C47.8013 4.3123 57.2238 0.820787 73.4202 0.11772C86.7009 -0.458784 94.7378 0.994508 106.869 6.42908C117.189 11.0519 130.431 23.2594 130.431 23.2594C130.431 23.2594 123.349 24.2719 119.281 26.2047C115.968 27.7791 111.498 31.4641 111.498 31.4641C111.498 31.4641 122.912 28.1783 130.431 27.8877Z" fill="url(#paint0_linear_103_462)"/>
<path d="M89.8292 91.8428C91.9579 94.128 96.9819 95.4192 96.9819 95.4192C96.9819 95.4192 90.8811 95.4192 88.567 94.1569C86.6189 93.0943 85.0199 91.6998 84.1492 89.739C83.4018 88.0559 83.046 85.0844 83.7284 82.3757C84.8446 77.9457 90.8811 73.1191 90.8811 73.1191C90.8811 73.1191 87.5151 78.5889 86.884 82.3757C86.2475 86.1949 87.1902 89.0096 89.8292 91.8428Z" fill="url(#paint1_linear_103_462)"/>
<defs>
<linearGradient id="paint0_linear_103_462" x1="150.206" y1="0.117716" x2="-0.00391652" y2="147.379" gradientUnits="userSpaceOnUse">
<stop stop-color="#17E2D6"/>
<stop offset="1" stop-color="#1127ED"/>
</linearGradient>
<linearGradient id="paint1_linear_103_462" x1="150.206" y1="0.117716" x2="-0.00391652" y2="147.379" gradientUnits="userSpaceOnUse">
<stop stop-color="#17E2D6"/>
<stop offset="1" stop-color="#1127ED"/>
</linearGradient>
</defs>
</svg>
