<svg xmlns="http://www.w3.org/2000/svg" width="48" height="48" enable-background="new 0 0 48 48" viewBox="0 0 48 48"><path d="M35,48H13c-0.464,0-0.866-0.318-0.973-0.77c-0.107-0.451,0.11-0.917,0.525-1.125C15.045,44.856,19,42.095,19,40
		c0-0.553,0.447-1,1-1h8c0.553,0,1,0.447,1,1c0,2.1,3.954,4.859,6.447,6.105c0.415,0.207,0.633,0.673,0.526,1.124
		C35.866,47.681,35.464,48,35,48z M16.584,46h14.832c-1.785-1.265-3.751-3.042-4.279-5h-6.273
		C20.335,42.958,18.369,44.735,16.584,46z"/><path d="M32,41H16c-5.514,0-10-4.486-10-10V19c0-0.553,0.447-1,1-1h34c0.553,0,1,0.447,1,1v12C42,36.514,37.514,41,32,41z M8,20v11
		c0,4.411,3.589,8,8,8h16c4.411,0,8-3.589,8-8V20H8z"/><path d="M23.97,20H9.03c-0.506,0-0.933-0.378-0.993-0.88C8.012,18.909,8,18.711,8,18.5c0-4.652,3.783-8.466,8.433-8.5
		c3.666,0,6.883,2.278,8.07,5.669C24.831,16.55,25,17.508,25,18.5c0,0.211-0.012,0.409-0.037,0.62C24.902,19.622,24.476,20,23.97,20
		z M10.02,18h12.962c-0.044-0.574-0.164-1.128-0.359-1.651C21.708,13.74,19.251,12,16.5,12C13.062,12.025,10.275,14.673,10.02,18z"/><path d="M38.97,20H24.03c-0.506,0-0.933-0.378-0.993-0.88C23.012,18.909,23,18.711,23,18.5c0-1.011,0.176-1.993,0.523-2.921
		c1.088-2.996,3.73-5.107,6.894-5.501C30.721,10.027,31.088,10,31.5,10c4.687,0,8.5,3.813,8.5,8.5c0,0.211-0.012,0.409-0.037,0.62
		C39.902,19.622,39.476,20,38.97,20z M25.019,18h12.963c-0.257-3.352-3.065-6-6.481-6c-0.303,0-0.563,0.019-0.798,0.057
		c-2.415,0.302-4.481,1.954-5.302,4.215C25.191,16.828,25.064,17.406,25.019,18z"/><path d="M23.56 17c-.425 0-.804-.269-.943-.669C21.708 13.74 19.251 12 16.5 12c-.418 0-.852-.26-.997-.651C15.169 10.45 15 9.492 15 8.5 15 3.813 18.813 0 23.5 0S32 3.813 32 8.5c0 1.011-.176 1.993-.523 2.921-.131.349-.443.596-.813.642-2.376.296-4.442 1.948-5.263 4.209-.123.338-.419.584-.773.645C24.292 16.973 23.942 17 23.56 17zM17.186 10.031c2.919.25 5.473 1.951 6.812 4.479 1.18-2.237 3.287-3.825 5.78-4.328C29.925 9.641 30 9.077 30 8.5 30 4.916 27.084 2 23.5 2S17 4.916 17 8.5C17 9.027 17.062 9.54 17.186 10.031zM30.54 11.07h.01H30.54zM43 20H5c-.553 0-1-.447-1-1s.447-1 1-1h38c.553 0 1 .447 1 1S43.553 20 43 20zM36 6c-1.654 0-3-1.346-3-3s1.346-3 3-3 3 1.346 3 3S37.654 6 36 6zM36 2c-.552 0-1 .448-1 1s.448 1 1 1 1-.448 1-1S36.552 2 36 2zM7 13c-1.654 0-3-1.346-3-3s1.346-3 3-3 3 1.346 3 3S8.654 13 7 13zM7 9c-.552 0-1 .448-1 1s.448 1 1 1 1-.448 1-1S7.552 9 7 9zM14 2c-.13 0-.26-.03-.38-.08s-.23-.12-.33-.21c-.09-.101-.16-.21-.21-.33S13 1.13 13 1s.03-.26.08-.38c.05-.13.12-.23.21-.33.05-.04.1-.09.149-.12C13.5.13 13.56.1 13.62.08c.06-.03.12-.05.18-.061.33-.069.67.04.91.271.09.1.16.2.21.33C14.97.74 15 .87 15 1s-.03.26-.08.38-.12.229-.21.33C14.52 1.899 14.27 2 14 2zM43 17c-.271 0-.521-.101-.71-.29C42.1 16.52 42 16.27 42 16c0-.13.02-.26.08-.38.05-.13.12-.23.21-.33.229-.23.58-.34.899-.271.07.011.13.03.19.061.06.02.12.05.17.09.06.03.11.08.15.12.1.1.17.2.22.33C43.97 15.74 44 15.87 44 16c0 .27-.101.52-.3.71C43.52 16.899 43.27 17 43 17z"/></svg>