<svg xmlns="http://www.w3.org/2000/svg" width="64" height="64" viewBox="0 0 16.933 16.933">
<path  d="m 8.466666,0.52916798 c -4.2308869,0.0019 -7.71152181,3.56605982 -7.93749981,8.10648172 0,1.332988 1.01721001,2.3542393 2.08411101,3.2256423 0.511475,0.417754 1.0462389,0.807722 1.5248821,1.193136 -0.132057,0.250967 -0.1988651,0.532094 -0.1988651,0.810876 0,1.108903 1.0309489,1.970423 2.2520589,1.970423 0.1682761,0 0.338794,-0.0176 0.502811,-0.05013 0.109406,0.08654 0.2137971,0.160453 0.321428,0.226343 0.506508,0.31008 0.996079,0.392225 1.4510739,0.392225 0.454995,0 0.9445662,-0.08215 1.4510742,-0.392224 0.1074428,-0.06578 0.2118398,-0.138443 0.3209118,-0.224793 0.163014,0.03229 0.332373,0.04858 0.499711,0.04858 1.22111,-10e-7 2.253609,-0.861519 2.253609,-1.970422 -1e-6,-0.278631 -0.06746,-0.554307 -0.198437,-0.80822 0.478712,-0.385482 1.013398,-0.777959 1.524971,-1.195792 1.080842,-0.88279 2.085661,-1.8970401 2.085661,-3.2256432 C 16.178486,4.1012069 12.697555,0.53111798 8.466666,0.52916798 Z m 0,0.52968302 c 3.930545,0.0018 7.191536,3.3216408 7.408334,7.5897178 -0.0033,1.0624359 -0.843032,1.9466032 -1.89084,2.8024132 -1.049861,0.857487 -2.294201,1.668204 -2.896464,2.564701 -0.03571,0.05315 -0.06675,0.09864 -0.101803,0.148828 -0.620973,-0.598558 -1.544575,-0.93586 -2.5212939,-0.93586 -0.9744569,0 -1.8978361,0.337829 -2.5187089,0.933793 -0.03606,-0.0516 -0.06348,-0.09203 -0.100253,-0.146761 C 5.2429291,13.118525 3.9990353,12.308469 2.9491732,11.450982 1.9013662,10.595172 1.0604002,9.7117509 1.0604002,8.6485688 1.2771972,4.3804918 4.5361222,1.060662 8.466666,1.058851 Z m 2.127003,1.667599 c 0.43097,0.189018 0.843317,0.4196009 1.230416,0.6893628 0.193546,0.1348822 0.379854,0.2802112 0.560689,0.433566 0.273383,0.2243802 0.606858,-0.1748049 0.343648,-0.40411 C 12.53496,3.2812068 12.334291,3.126773 12.126909,2.982248 11.712132,2.693197 11.269769,2.445393 10.806576,2.242242 10.34339,2.03909 9.8591221,1.8803689 9.3575681,1.773536 c -0.0173,-0.004 -0.04116,-0.0052 -0.07261,-0.0054 C 8.979376,1.796506 8.9466259,2.2198141 9.2459421,2.29083 9.7117761,2.390037 10.162708,2.5374319 10.593669,2.72645 Z M 8.4630492,3.4398348 c -0.147147,0.0014 -0.261765,0.1213411 -0.2619999,0.265366 v 6.8786502 c 0.0085,0.347256 0.5226999,0.356557 0.5291669,0 V 3.7052008 c 0.0029,-0.149152 -0.1179941,-0.266836 -0.267167,-0.265366 z m 4.6891198,1.157818 c 0.07976,0.08942 0.158608,0.1819731 0.234611,0.275436 0.231019,0.266093 0.623981,-0.05878 0.410311,-0.3338298 -0.081,-0.09961 -0.164922,-0.197491 -0.250114,-0.2930051 -0.05258,-0.0612 -0.128144,-0.09197 -0.208773,-0.088882 -0.219851,0.0093 -0.335281,0.270285 -0.186035,0.4402809 z m 0.941545,2.630847 -3.439584,3.7031342 c -0.23151,0.264238 0.13901,0.613054 0.387057,0.361218 l 3.443201,-3.7083011 c 0.147722,-0.1649301 0.0438,-0.4340101 -0.19818,-0.442092 -0.0821,0.0054 -0.146865,0.03482 -0.192494,0.086041 z M 2.6281742,7.1435699 c -0.224073,0.01844 -0.325749,0.2800461 -0.177161,0.4440779 l 3.439583,3.7052002 c 0.2496569,0.247239 0.6206919,-0.09354 0.3886071,-0.361218 L 2.8396192,7.2284998 c -0.05383,-0.06025 -0.130786,-0.08969 -0.211445,-0.08493 z m 2.7782139,7.1671821 c 0.2700121,0.401925 0.5255062,0.727539 0.7741132,0.995287 -0.9680073,-0.006 -1.7115242,-0.667889 -1.7115242,-1.440738 0,-0.154278 0.03132,-0.314637 0.0894,-0.460954 0.3514966,0.305382 0.6502665,0.612053 0.8480105,0.906405 z m 7.0564199,-0.445435 c 0,0.772017 -0.742543,1.431462 -1.71049,1.441772 0.248083,-0.267703 0.503151,-0.594521 0.773079,-0.996321 0.197647,-0.294207 0.496224,-0.598596 0.847492,-0.903821 0.05806,0.146369 0.08992,0.304467 0.08992,0.45837 z m -1.795242,0.727604 c -0.378138,0.474101 -0.7205708,0.779905 -1.0268109,0.967383 -0.416592,0.255024 -0.7935269,0.3147 -1.1740891,0.3147 -0.3805618,0 -0.7590469,-0.05968 -1.1756389,-0.314709 -0.306614,-0.187707 -0.648671,-0.493829 -1.0268109,-0.968934 0.5011939,-0.510894 1.3192059,-0.83354 2.2003829,-0.833536 0.8818491,6e-6 1.7017889,0.323517 2.2029669,0.835096 z" fill="#000"/>
</svg>