<svg xmlns="http://www.w3.org/2000/svg" width="32" height="32" viewBox="0 0 32 32"><path style="line-height:normal;text-indent:0;text-align:start;text-decoration-line:none;text-decoration-style:solid;text-decoration-color:#000;text-transform:none;block-progression:tb;white-space:normal;isolation:auto;mix-blend-mode:normal;solid-color:#000;solid-opacity:1" d="M 16.613281 -0.001953125 A 0.50004997 0.50004997 0 0 0 16.466797 0.0234375 C 15.576791 0.29546077 15.025313 1.1580855 15.005859 2.0976562 C 12.9491 2.4763296 11.243516 4.0030379 10.6875 6.078125 C 10.1301 8.1583487 10.848934 10.337912 12.449219 11.693359 C 10.389751 12.523812 8.6722094 14.050372 7.6171875 16.029297 C 6.3962236 18.319497 6.1653365 21.011863 6.9785156 23.476562 A 0.50004997 0.50004997 0 0 0 7 23.53125 A 0.50005 0.50005 0 0 0 7.0703125 23.757812 C 7.3001736 24.156013 7.7277842 24.402344 8.1875 24.402344 C 8.3577767 24.402344 8.5191622 24.357723 8.671875 24.294922 C 9.0956166 24.810179 9.7748543 25.081895 10.458984 24.957031 C 10.863362 24.883181 11.213324 24.675893 11.480469 24.392578 C 11.821772 24.999117 12.285531 25.539287 12.859375 25.966797 C 13.038956 26.100584 13.228557 26.224812 13.427734 26.335938 C 13.755425 26.518742 14.100958 26.654103 14.453125 26.761719 L 14.453125 28.6875 L 13.179688 28.050781 A 0.50005 0.50005 0 0 0 12.939453 27.992188 L 12.939453 27.994141 A 0.50005 0.50005 0 0 0 12.732422 28.945312 L 13.673828 29.416016 L 11.886719 30.039062 A 0.50005 0.50005 0 1 0 12.214844 30.982422 L 14.035156 30.347656 L 13.517578 31.246094 A 0.50005 0.50005 0 1 0 14.382812 31.746094 L 15.382812 30.013672 A 0.50005 0.50005 0 0 0 15.451172 29.701172 L 15.453125 29.701172 L 15.453125 29.564453 A 0.50005 0.50005 0 0 0 15.453125 29.449219 L 15.453125 26.96875 C 15.817068 27.006423 16.182932 27.006423 16.546875 26.96875 L 16.546875 29.443359 A 0.50005 0.50005 0 0 0 16.546875 29.554688 L 16.546875 29.701172 L 16.550781 29.701172 A 0.50005 0.50005 0 0 0 16.617188 30.013672 L 17.617188 31.746094 A 0.50005 0.50005 0 1 0 18.482422 31.246094 L 17.964844 30.347656 L 19.785156 30.982422 A 0.50005 0.50005 0 1 0 20.113281 30.039062 L 18.326172 29.416016 L 19.267578 28.945312 A 0.50005 0.50005 0 0 0 19.044922 27.994141 A 0.50005 0.50005 0 0 0 18.820312 28.050781 L 17.546875 28.6875 L 17.546875 26.761719 C 17.899042 26.654103 18.244575 26.518742 18.572266 26.335938 C 18.771442 26.224813 18.961044 26.100584 19.140625 25.966797 C 19.713793 25.539791 20.176375 25.000191 20.517578 24.394531 C 20.794811 24.687822 21.164017 24.89605 21.583984 24.962891 C 22.255125 25.069784 22.915658 24.80081 23.330078 24.296875 C 23.482135 24.359055 23.643101 24.402344 23.8125 24.402344 C 24.272216 24.402344 24.699825 24.156013 24.929688 23.757812 A 0.50005 0.50005 0 0 0 25 23.53125 A 0.50004997 0.50004997 0 0 0 25.021484 23.476562 C 25.832093 21.017562 25.604891 18.333575 24.390625 16.046875 C 23.336303 14.061371 21.615929 12.524074 19.550781 11.691406 C 21.150331 10.335893 21.869778 8.1578953 21.3125 6.078125 C 20.79464 4.1454394 19.275221 2.7005303 17.408203 2.203125 C 18.474288 1.9333938 19.600286 1.9329275 20.681641 2.2226562 A 0.50005 0.50005 0 1 0 20.941406 1.2578125 C 19.980826 1.0004125 18.988817 0.93910625 18.021484 1.0664062 C 17.377193 1.151261 16.746333 1.3264952 16.140625 1.5761719 C 16.275137 1.2868507 16.493061 1.0613989 16.757812 0.98046875 A 0.50004997 0.50004997 0 0 0 16.613281 0 L 16.613281 -0.001953125 z M 16 3.0019531 C 18.039141 3.0019531 19.817931 4.3662375 20.345703 6.3359375 C 20.867437 8.2830604 20.031868 10.327784 18.306641 11.359375 A 0.50004997 0.50004997 0 0 0 18.316406 12.322266 C 20.545656 12.953866 22.421175 14.469225 23.507812 16.515625 C 24.594456 18.561925 24.797677 20.961609 24.072266 23.162109 A 0.50004997 0.50004997 0 0 0 24.046875 23.273438 C 23.993116 23.352217 23.908847 23.402344 23.8125 23.402344 C 23.708445 23.402344 23.61453 23.347812 23.5625 23.257812 A 0.50005 0.50005 0 0 0 22.625 23.546875 C 22.444722 23.855624 22.104532 24.034576 21.740234 23.976562 C 21.33402 23.911872 21.035588 23.579675 21.005859 23.171875 C 21.047386 23.005253 21.087563 22.837402 21.111328 22.666016 C 21.111328 22.666016 21.111328 22.664062 21.111328 22.664062 C 21.141438 22.446287 21.156159 22.223294 21.15625 22 C 21.15625 20.0126 21.23463 18.931428 20.763672 17.173828 A 0.50004997 0.50004997 0 0 0 20.757812 17.152344 C 20.678863 16.905144 20.581097 16.6665 20.466797 16.4375 A 0.50006575 0.50006575 0 1 0 19.572266 16.884766 C 19.661606 17.063766 19.736172 17.251413 19.798828 17.445312 C 20.233131 19.072312 20.15625 19.993453 20.15625 22.001953 C 20.156249 22.352397 20.108415 22.695245 20.017578 23.025391 C 20.016157 23.030554 20.015114 23.035859 20.013672 23.041016 A 0.50005 0.50005 0 0 1 20.011719 23.042969 A 0.50005 0.50005 0 0 0 20.011719 23.048828 C 19.843313 23.646325 19.525501 24.192396 19.097656 24.654297 C 19.164757 24.400627 19.203124 24.138025 19.203125 23.869141 C 19.203125 22.715441 19.247575 22.053706 18.970703 21.003906 A 0.50004994 0.50004994 0 0 0 18.964844 20.980469 C 18.916444 20.826569 18.857462 20.678256 18.787109 20.535156 C 18.716979 20.392456 18.635441 20.2545 18.544922 20.125 C 18.454572 19.9958 18.355442 19.875019 18.246094 19.761719 C 18.136249 19.647919 18.017738 19.542819 17.892578 19.449219 A 0.50004994 0.50004994 0 0 0 17.890625 19.449219 C 17.76486 19.355219 17.630667 19.271519 17.488281 19.199219 L 17.486328 19.199219 C 17.344096 19.127219 17.195714 19.066431 17.042969 19.019531 A 0.50004994 0.50004994 0 0 0 17.023438 19.009766 L 17.023438 19.019531 C 16.371178 18.847931 15.696612 18.840231 15.035156 19.019531 A 0.50004994 0.50004994 0 0 0 15.021484 19.019531 C 13.778411 19.396731 12.949239 20.606078 12.949219 21.955078 L 12.949219 21.929688 L 12.857422 23.845703 A 0.50004994 0.50004994 0 0 0 12.857422 23.869141 C 12.857422 24.173669 12.906681 24.469825 12.992188 24.753906 C 12.523125 24.280063 12.180483 23.705297 11.998047 23.076172 A 0.50005 0.50005 0 0 0 11.998047 23.074219 A 0.50005 0.50005 0 0 0 11.951172 22.875 C 11.884983 22.590781 11.843751 22.300057 11.84375 22.001953 C 11.84375 19.993653 11.76875 19.072613 12.203125 17.445312 C 12.265775 17.251413 12.340341 17.063766 12.429688 16.884766 A 0.50004997 0.50004997 0 0 0 11.958984 16.154297 A 0.50004997 0.50004997 0 0 0 11.535156 16.4375 C 11.420858 16.6665 11.323092 16.905144 11.244141 17.152344 A 0.50004997 0.50004997 0 0 0 11.238281 17.173828 C 10.767404 18.931128 10.84375 20.0124 10.84375 22 A 0.50004994 0.50004994 0 0 0 10.84375 22.001953 C 10.843841 22.225247 10.858562 22.446287 10.888672 22.664062 C 10.888672 22.664062 10.888672 22.666016 10.888672 22.666016 C 10.911715 22.832197 10.952434 22.994531 10.992188 23.15625 C 10.992188 23.15625 10.992188 23.158203 10.992188 23.158203 C 10.968682 23.562069 10.684253 23.899046 10.28125 23.972656 C 9.9107848 24.0405 9.5589728 23.861822 9.375 23.546875 A 0.50005 0.50005 0 0 0 8.4375 23.257812 C 8.385472 23.347812 8.2915548 23.402344 8.1875 23.402344 C 8.0901895 23.402344 8.0047812 23.351707 7.9511719 23.271484 A 0.50004997 0.50004997 0 0 0 7.9277344 23.162109 C 7.2000213 20.956409 7.4073608 18.5495 8.5 16.5 C 9.5926461 14.4505 11.476042 12.9377 13.712891 12.3125 A 0.50004997 0.50004997 0 0 0 13.662109 11.337891 C 11.95917 10.300051 11.135882 8.2706717 11.654297 6.3359375 C 12.182069 4.3662375 13.960859 3.0019531 16 3.0019531 z M 14.25 5.5 A 0.75 0.75 0 0 0 13.5 6.25 A 0.75 0.75 0 0 0 14.25 7 A 0.75 0.75 0 0 0 15 6.25 A 0.75 0.75 0 0 0 14.25 5.5 z M 18.25 5.5 A 0.75 0.75 0 0 0 17.5 6.25 A 0.75 0.75 0 0 0 18.25 7 A 0.75 0.75 0 0 0 19 6.25 A 0.75 0.75 0 0 0 18.25 5.5 z M 16.021484 8 A 1.4142137 2.0000238 0 0 0 15 8.5859375 L 16 10 L 17 8.5859375 A 1.4142137 2.0000238 0 0 0 16.021484 8 z M 16.03125 19.888672 C 16.272524 19.889022 16.51448 19.921928 16.761719 19.986328 C 16.856949 20.016328 16.949431 20.052403 17.035156 20.095703 C 17.124996 20.141703 17.210533 20.196412 17.292969 20.257812 C 17.376449 20.319812 17.453769 20.388691 17.525391 20.462891 C 17.597501 20.537891 17.66567 20.620031 17.726562 20.707031 C 17.787302 20.794031 17.840807 20.886875 17.888672 20.984375 C 17.933532 21.075375 17.971712 21.172184 18.003906 21.271484 C 18.246952 22.196084 18.203125 22.699953 18.203125 23.876953 C 18.203123 24.633553 17.794823 25.332944 17.121094 25.714844 C 16.794193 25.900144 16.429768 25.990611 16.064453 25.996094 C 16.059259 25.996171 16.054023 25.996035 16.048828 25.996094 C 16.0397 25.996197 16.030613 25.998001 16.021484 25.998047 C 15.648309 25.996383 15.275313 25.904115 14.941406 25.714844 C 14.268989 25.333744 13.860968 24.635759 13.859375 23.880859 L 13.947266 21.986328 A 0.50004994 0.50004994 0 0 0 13.949219 21.962891 C 13.949233 21.025691 14.522182 20.229781 15.306641 19.988281 L 15.306641 19.986328 C 15.549382 19.920528 15.789976 19.888322 16.03125 19.888672 z " color="#000" enable-background="accumulate" font-family="sans-serif" font-weight="400" overflow="visible"/></svg>