<svg width="390" height="44" viewBox="0 0 390 44" fill="none" xmlns="http://www.w3.org/2000/svg">
<rect opacity="0.35" x="351.5" y="17.8333" width="21" height="10.3333" rx="2.16667" stroke="black"/>
<path opacity="0.4" d="M374 21V25C374.808 24.6612 375.333 23.8731 375.333 23C375.333 22.1269 374.808 21.3388 374 21Z" fill="black"/>
<rect x="353" y="19.3333" width="18" height="7.33333" rx="1.33333" fill="black"/>
<path fill-rule="evenodd" clip-rule="evenodd" d="M338.334 19.5739C340.558 19.574 342.698 20.4117 344.311 21.9138C344.432 22.0298 344.626 22.0283 344.746 21.9105L345.906 20.7627C345.967 20.703 346.001 20.622 346 20.5378C345.999 20.4536 345.965 20.3731 345.904 20.3141C341.672 16.3397 334.995 16.3397 330.763 20.3141C330.702 20.3731 330.667 20.4536 330.667 20.5378C330.666 20.622 330.7 20.7029 330.76 20.7627L331.921 21.9105C332.041 22.0285 332.235 22.03 332.356 21.9138C333.969 20.4116 336.109 19.5739 338.334 19.5739ZM338.332 23.2994C339.556 23.2994 340.736 23.756 341.643 24.5805C341.766 24.6975 341.959 24.695 342.079 24.5748L343.239 23.3976C343.3 23.3359 343.334 23.2521 343.333 23.1651C343.332 23.0781 343.297 22.995 343.234 22.9345C340.472 20.3551 336.194 20.3551 333.432 22.9345C333.37 22.995 333.334 23.0781 333.333 23.1652C333.333 23.2522 333.367 23.336 333.428 23.3976L334.588 24.5748C334.708 24.695 334.901 24.6975 335.024 24.5805C335.93 23.7565 337.109 23.2999 338.332 23.2994ZM340.667 26.023C340.668 26.1085 340.634 26.1909 340.572 26.2507L338.557 28.2419C338.498 28.3004 338.417 28.3333 338.333 28.3333C338.249 28.3333 338.169 28.3004 338.11 28.2419L336.095 26.2507C336.032 26.1908 335.998 26.1084 336 26.023C336.002 25.9375 336.04 25.8566 336.104 25.7993C337.391 24.7335 339.276 24.7335 340.562 25.7993C340.627 25.8566 340.665 25.9376 340.667 26.023Z" fill="black"/>
<path fill-rule="evenodd" clip-rule="evenodd" d="M325.667 18.6667C325.667 18.1144 325.219 17.6667 324.667 17.6667H323.667C323.114 17.6667 322.667 18.1144 322.667 18.6667V27.3334C322.667 27.8856 323.114 28.3334 323.667 28.3334H324.667C325.219 28.3334 325.667 27.8856 325.667 27.3334V18.6667ZM319 20H320C320.552 20 321 20.4477 321 21V27.3334C321 27.8856 320.552 28.3334 320 28.3334H319C318.448 28.3334 318 27.8856 318 27.3334V21C318 20.4477 318.448 20 319 20ZM315.333 22.3334H314.333C313.781 22.3334 313.333 22.7811 313.333 23.3334V27.3334C313.333 27.8856 313.781 28.3334 314.333 28.3334H315.333C315.886 28.3334 316.333 27.8856 316.333 27.3334V23.3334C316.333 22.7811 315.886 22.3334 315.333 22.3334ZM311.667 25.3334C311.667 24.7811 311.219 24.3334 310.667 24.3334H309.667C309.114 24.3334 308.667 24.7811 308.667 25.3334V27.3334C308.667 27.8856 309.114 28.3334 309.667 28.3334H310.667C311.219 28.3334 311.667 27.8856 311.667 27.3334V25.3334Z" fill="black"/>
<path d="M36.9974 28.2563C39.6854 28.2563 41.2821 26.1543 41.2821 22.5947C41.2821 21.2544 41.0257 20.1265 40.535 19.2549C39.8245 17.8999 38.6014 17.1675 37.056 17.1675C34.7562 17.1675 33.1302 18.7129 33.1302 20.8809C33.1302 22.917 34.595 24.3965 36.6092 24.3965C37.847 24.3965 38.8504 23.8179 39.3485 22.8145H39.3704C39.3704 22.8145 39.3997 22.8145 39.4071 22.8145C39.4217 22.8145 39.473 22.8145 39.473 22.8145C39.473 25.2314 38.5574 26.6743 37.012 26.6743C36.1038 26.6743 35.4007 26.1763 35.159 25.3779H33.2767C33.5916 27.1138 35.0638 28.2563 36.9974 28.2563ZM37.0633 22.895C35.8475 22.895 34.9832 22.0308 34.9832 20.8223C34.9832 19.6431 35.8914 18.7422 37.0706 18.7422C38.2498 18.7422 39.158 19.6577 39.158 20.8516C39.158 22.0308 38.2718 22.895 37.0633 22.895ZM44.2666 26.8794C44.9624 26.8794 45.4385 26.3813 45.4385 25.7222C45.4385 25.0557 44.9624 24.5649 44.2666 24.5649C43.5781 24.5649 43.0947 25.0557 43.0947 25.7222C43.0947 26.3813 43.5781 26.8794 44.2666 26.8794ZM44.2666 21.3862C44.9624 21.3862 45.4385 20.8955 45.4385 20.2363C45.4385 19.5698 44.9624 19.0791 44.2666 19.0791C43.5781 19.0791 43.0947 19.5698 43.0947 20.2363C43.0947 20.8955 43.5781 21.3862 44.2666 21.3862ZM47.4635 20.522V20.5513H49.236V20.522C49.236 19.4453 49.9831 18.7202 51.089 18.7202C52.1291 18.7202 52.8908 19.394 52.8908 20.3242C52.8908 21.0713 52.5319 21.6206 51.089 23.0854L47.5661 26.689V28H54.9049V26.396H50.1588V26.2715L52.3708 24.0522C54.1652 22.2798 54.7438 21.3423 54.7438 20.207C54.7438 18.4419 53.235 17.1675 51.1476 17.1675C48.9796 17.1675 47.4635 18.5444 47.4635 20.522ZM57.1424 28H59.1199L63.639 19.0425V17.4312H56.2855V19.0205H61.7347V19.1377L57.1424 28Z" fill="black"/>
</svg>
